<?xml version="1.0" encoding="UTF-8" standalone="no"?>
<!-- Created with Inkscape (http://www.inkscape.org/) -->

<svg
   xmlns:dc="http://purl.org/dc/elements/1.1/"
   xmlns:cc="http://creativecommons.org/ns#"
   xmlns:rdf="http://www.w3.org/1999/02/22-rdf-syntax-ns#"
   xmlns:svg="http://www.w3.org/2000/svg"
   xmlns="http://www.w3.org/2000/svg"
   xmlns:sodipodi="http://sodipodi.sourceforge.net/DTD/sodipodi-0.dtd"
   xmlns:inkscape="http://www.inkscape.org/namespaces/inkscape"
   width="302.05917mm"
   height="252.19586mm"
   viewBox="0 0 1070.2883 893.60738"
   id="svg7377"
   version="1.1"
   inkscape:version="0.91 r13725"
   sodipodi:docname="LibrePilot_logo.svg"
   inkscape:export-filename="./librepilot_logo_64.png"
   inkscape:export-xdpi="11.52"
   inkscape:export-ydpi="11.52">
  <title
     id="title3513">LibrePilot Logo</title>
  <defs
     id="defs7379" />
  <sodipodi:namedview
     id="base"
     pagecolor="#ffffff"
     bordercolor="#666666"
     borderopacity="1.0"
     inkscape:pageopacity="0.0"
     inkscape:pageshadow="2"
     inkscape:zoom="0.39867996"
     inkscape:cx="517.71302"
     inkscape:cy="324.03604"
     inkscape:document-units="px"
     inkscape:current-layer="layer1"
     showgrid="false"
     fit-margin-top="10"
     fit-margin-right="10"
     fit-margin-left="10"
     fit-margin-bottom="10"
     inkscape:window-width="1280"
     inkscape:window-height="927"
     inkscape:window-x="0"
     inkscape:window-y="27"
     inkscape:window-maximized="1"
     inkscape:snap-page="true"
     inkscape:snap-bbox="true"
     inkscape:bbox-nodes="true"
     inkscape:snap-bbox-midpoints="true"
     inkscape:snap-midpoints="true" />
  <metadata
     id="metadata7382">
    <rdf:RDF>
      <cc:Work
         rdf:about="">
        <dc:format>image/svg+xml</dc:format>
        <dc:type
           rdf:resource="http://purl.org/dc/dcmitype/StillImage" />
        <dc:title>LibrePilot Logo</dc:title>
        <dc:date>July 2015</dc:date>
        <dc:creator>
          <cc:Agent>
            <dc:title>LibrePilot</dc:title>
          </cc:Agent>
        </dc:creator>
        <dc:identifier>www.librepilot.org</dc:identifier>
        <cc:license
           rdf:resource="http://creativecommons.org/licenses/by-nc-nd/3.0/" />
      </cc:Work>
      <cc:License
         rdf:about="http://creativecommons.org/licenses/by-nc-nd/3.0/">
        <cc:permits
           rdf:resource="http://creativecommons.org/ns#Reproduction" />
        <cc:permits
           rdf:resource="http://creativecommons.org/ns#Distribution" />
        <cc:requires
           rdf:resource="http://creativecommons.org/ns#Notice" />
        <cc:requires
           rdf:resource="http://creativecommons.org/ns#Attribution" />
        <cc:prohibits
           rdf:resource="http://creativecommons.org/ns#CommercialUse" />
      </cc:License>
    </rdf:RDF>
  </metadata>
  <g
     inkscape:label="Calque 1"
     inkscape:groupmode="layer"
     id="layer1"
     transform="translate(566.91944,446.91581)">
    <g
       id="g3502"
       transform="translate(554.89321,146.32681)"
       inkscape:export-xdpi="401.10089"
       inkscape:export-ydpi="401.10089">
      <path
         inkscape:connector-curvature="0"
         id="rect8168"
         d="M -561.37457,-37.809547 L -112.54027,-37.809547 L -112.54027,121.2776 L -561.37457,121.2776 Z"
         style="color:#000000;display:inline;overflow:visible;visibility:visible;opacity:1;fill:#ffffff;fill-opacity:1;fill-rule:nonzero;stroke:none;stroke-width:5;stroke-linecap:round;stroke-linejoin:round;stroke-miterlimit:4;stroke-dasharray:none;stroke-dashoffset:0;stroke-opacity:1;marker:none;enable-background:accumulate" />
      <g
         inkscape:export-ydpi="56.630924"
         inkscape:export-xdpi="56.630924"
         id="g8170"
         transform="translate(-691.00285,-528.64572)">
        <g
           id="text8172"
           style="font-style:normal;font-variant:normal;font-weight:normal;font-stretch:normal;font-size:80px;line-height:125%;font-family:paola;-inkscape-font-specification:paola;letter-spacing:0px;word-spacing:0px;fill:#767575;fill-opacity:1;stroke:none;stroke-width:1px;stroke-linecap:butt;stroke-linejoin:miter;stroke-opacity:1">
          <path
             inkscape:connector-curvature="0"
             id="path4625"
             style="font-style:normal;font-variant:normal;font-weight:normal;font-stretch:normal;font-family:Prototype;-inkscape-font-specification:Prototype;fill:#767575;fill-opacity:1"
             d="M 184.74482,611.42617 L 163.06482,611.42617 Q 159.94482,611.42617 159.94482,608.78617 L 159.94482,565.26617 Q 159.94482,564.46617 159.14482,564.46617 L 149.14482,564.46617 Q 148.34482,564.46617 148.34482,565.26617 L 148.34482,607.82617 Q 148.34482,614.54617 151.14482,617.90617 Q 153.94482,621.18617 160.58482,621.74617 Q 160.98482,621.82617 161.54482,621.82617 Q 162.10482,621.82617 162.74482,621.82617 L 184.74482,621.82617 Q 185.54482,621.82617 185.54482,621.02617 L 185.54482,612.22617 Q 185.54482,611.42617 184.74482,611.42617 Z" />
          <path
             inkscape:connector-curvature="0"
             id="path4627"
             style="font-style:normal;font-variant:normal;font-weight:normal;font-stretch:normal;font-family:Prototype;-inkscape-font-specification:Prototype;fill:#767575;fill-opacity:1"
             d="M 189.36232,621.02617 Q 189.36232,621.82617 190.16232,621.82617 L 198.32232,621.82617 Q 199.12232,621.82617 199.12232,621.02617 L 199.12232,580.94617 Q 199.12232,580.14617 198.32232,580.14617 L 190.16232,580.14617 Q 189.36232,580.14617 189.36232,580.94617 L 189.36232,621.02617 Z M 189.36232,565.26617 L 189.36232,573.42617 Q 189.36232,574.22617 190.16232,574.22617 L 198.32232,574.22617 Q 199.12232,574.22617 199.12232,573.42617 L 199.12232,565.26617 Q 199.12232,564.46617 198.32232,564.46617 L 190.16232,564.46617 Q 189.36232,564.46617 189.36232,565.26617 Z" />
          <path
             inkscape:connector-curvature="0"
             id="path4629"
             style="font-style:normal;font-variant:normal;font-weight:normal;font-stretch:normal;font-family:Prototype;-inkscape-font-specification:Prototype;fill:#767575;fill-opacity:1"
             d="M 215.52857,579.34617 L 215.52857,565.26617 Q 215.52857,564.46617 214.72857,564.46617 L 206.56857,564.46617 Q 205.76857,564.46617 205.76857,565.26617 L 205.76857,621.02617 Q 205.76857,621.82617 206.56857,621.82617 L 231.44857,621.82617 Q 235.12857,621.82617 237.84857,619.98617 Q 240.64857,618.06617 242.40857,615.18617 Q 244.16857,612.22617 245.04857,608.54617 Q 245.92857,604.86617 245.92857,601.26617 Q 245.92857,596.54617 245.04857,592.62617 Q 244.24857,588.70617 242.48857,585.98617 Q 240.72857,583.18617 238.00857,581.66617 Q 235.28857,580.14617 231.44857,580.14617 L 216.32857,580.14617 Q 215.52857,580.14617 215.52857,579.34617 Z M 215.52857,590.70617 Q 215.52857,589.90617 216.32857,589.90617 L 225.04857,589.90617 Q 227.52857,589.90617 229.52857,590.38617 Q 231.60857,590.78617 233.04857,592.06617 Q 234.56857,593.26617 235.36857,595.50617 Q 236.16857,597.74617 236.16857,601.26617 Q 236.16857,604.54617 235.36857,606.62617 Q 234.56857,608.70617 233.12857,609.90617 Q 231.68857,611.10617 229.60857,611.58617 Q 227.52857,612.06617 225.04857,612.06617 L 216.32857,612.06617 Q 215.52857,612.06617 215.52857,611.26617 L 215.52857,590.70617 Z" />
          <path
             inkscape:connector-curvature="0"
             id="path4631"
             style="font-style:normal;font-variant:normal;font-weight:normal;font-stretch:normal;font-family:Prototype;-inkscape-font-specification:Prototype;fill:#767575;fill-opacity:1"
             d="M 260.77607,580.14617 Q 258.61607,580.14617 256.69607,581.02617 Q 254.77607,581.82617 253.33607,583.26617 Q 251.89607,584.70617 251.01607,586.62617 Q 250.21607,588.54617 250.21607,590.62617 L 250.21607,621.02617 Q 250.21607,621.82617 251.01607,621.82617 L 259.97607,621.82617 Q 260.77607,621.82617 260.77607,621.02617 L 260.77607,593.42617 Q 260.77607,592.94617 261.01607,592.38617 Q 261.25607,591.74617 261.65607,591.26617 Q 262.13607,590.70617 262.69607,590.30617 Q 263.25607,589.90617 263.97607,589.90617 L 271.65607,589.90617 Q 272.45607,589.90617 272.45607,589.10617 L 272.45607,580.94617 Q 272.45607,580.14617 271.65607,580.14617 L 260.77607,580.14617 Z" />
          <path
             inkscape:connector-curvature="0"
             id="path4633"
             style="font-style:normal;font-variant:normal;font-weight:normal;font-stretch:normal;font-family:Prototype;-inkscape-font-specification:Prototype;fill:#767575;fill-opacity:1"
             d="M 285.34607,605.66617 L 314.94607,605.66617 Q 315.74607,605.66617 315.74607,604.86617 L 315.74607,596.54617 Q 315.74607,592.78617 314.62607,589.74617 Q 313.58607,586.70617 311.26607,584.62617 Q 308.94607,582.46617 305.34607,581.34617 Q 301.74607,580.14617 296.78607,580.14617 Q 292.78607,580.14617 288.78607,581.18617 Q 284.86607,582.14617 281.66607,584.62617 Q 278.54607,587.10617 276.54607,591.34617 Q 274.62607,595.50617 274.62607,601.90617 Q 274.62607,607.18617 275.74607,610.94617 Q 276.94607,614.70617 279.66607,617.18617 Q 282.46607,619.58617 286.94607,620.70617 Q 291.50607,621.82617 298.22607,621.82617 L 311.74607,621.82617 Q 312.54607,621.82617 312.54607,621.02617 L 312.54607,612.86617 Q 312.54607,612.06617 311.74607,612.06617 L 292.70607,612.06617 Q 291.02607,612.06617 289.50607,611.66617 Q 287.98607,611.18617 286.86607,610.46617 Q 285.82607,609.66617 285.18607,608.70617 Q 284.54607,607.66617 284.54607,606.46617 Q 284.54607,605.66617 285.34607,605.66617 Z M 285.34607,596.30617 Q 284.54607,596.30617 284.54607,595.50617 Q 284.54607,593.98617 285.74607,592.78617 Q 286.94607,591.50617 288.70607,590.70617 Q 290.54607,589.82617 292.46607,589.34617 Q 294.46607,588.86617 296.06607,588.86617 Q 301.10607,588.86617 303.90607,590.70617 Q 306.70607,592.46617 306.70607,595.50617 Q 306.70607,596.30617 305.90607,596.30617 L 285.34607,596.30617 Z" />
        </g>
        <g
           id="text8176"
           style="font-style:normal;font-variant:normal;font-weight:normal;font-stretch:normal;font-size:85.35001373px;line-height:125%;font-family:paola;-inkscape-font-specification:paola;letter-spacing:0px;word-spacing:0px;fill:#767575;fill-opacity:1;stroke:none;stroke-width:1px;stroke-linecap:butt;stroke-linejoin:miter;stroke-opacity:1"
           transform="scale(1.0668752,0.93731676)">
          <path
             inkscape:connector-curvature="0"
             id="path4636"
             style="font-style:normal;font-variant:normal;font-weight:normal;font-stretch:normal;font-family:Prototype;-inkscape-font-specification:Prototype;fill:#767575;fill-opacity:1"
             d="M 368.68865,604.0074 L 368.68865,662.55751 Q 368.68865,663.41101 369.54215,663.41101 L 380.2109,663.41101 Q 381.0644,663.41101 381.0644,662.55751 L 381.0644,643.01236 Q 381.0644,642.15886 381.9179,642.15886 L 396.76881,642.15886 Q 401.54841,642.15886 404.87706,640.79326 Q 408.20571,639.34231 410.25411,636.69646 Q 412.30251,634.05061 413.24136,630.38056 Q 414.18021,626.7105 414.18021,622.18695 Q 414.18021,617.8341 413.24136,614.16405 Q 412.30251,610.494 410.25411,607.84815 Q 408.20571,605.2023 404.87706,603.75135 Q 401.54841,602.21505 396.76881,602.21505 L 369.54215,602.21505 Q 368.68865,602.21505 368.68865,603.06855 L 368.68865,604.0074 Z M 398.21976,613.31055 Q 399.75606,613.31055 400.60956,614.4201 Q 401.54841,615.4443 401.97516,616.89525 Q 402.40191,618.3462 402.48726,619.8825 Q 402.65796,621.33345 402.65796,622.18695 Q 402.65796,623.04045 402.48726,624.57675 Q 402.40186,626.0277 401.97516,627.47865 Q 401.54841,628.92961 400.60956,630.03916 Q 399.75606,631.06336 398.21976,631.06336 L 381.9179,631.06336 Q 381.0644,631.06336 381.0644,630.20986 L 381.0644,614.16405 Q 381.0644,613.31055 381.9179,613.31055 L 398.21976,613.31055 Z" />
          <path
             inkscape:connector-curvature="0"
             id="path4638"
             style="font-style:normal;font-variant:normal;font-weight:normal;font-stretch:normal;font-family:Prototype;-inkscape-font-specification:Prototype;fill:#767575;fill-opacity:1"
             d="M 418.69842,662.55751 Q 418.69842,663.41101 419.55192,663.41101 L 428.25763,663.41101 Q 429.11113,663.41101 429.11113,662.55751 L 429.11113,619.79715 Q 429.11113,618.94365 428.25763,618.94365 L 419.55192,618.94365 Q 418.69842,618.94365 418.69842,619.79715 L 418.69842,662.55751 Z M 418.69842,603.06855 L 418.69842,611.77425 Q 418.69842,612.62775 419.55192,612.62775 L 428.25763,612.62775 Q 429.11113,612.62775 429.11113,611.77425 L 429.11113,603.06855 Q 429.11113,602.21505 428.25763,602.21505 L 419.55192,602.21505 Q 418.69842,602.21505 418.69842,603.06855 Z" />
          <path
             inkscape:connector-curvature="0"
             id="path4640"
             style="font-style:normal;font-variant:normal;font-weight:normal;font-stretch:normal;font-family:Prototype;-inkscape-font-specification:Prototype;fill:#767575;fill-opacity:1"
             d="M 436.20184,603.06855 L 436.20184,653.68111 L 436.20184,653.85181 L 436.20184,662.55751 Q 436.20184,663.41101 437.05534,663.41101 L 445.76104,663.41101 Q 446.61454,663.41101 446.61454,662.55751 L 446.61454,653.85181 L 446.61454,653.68111 L 446.61454,603.06855 Q 446.61454,602.21505 445.76104,602.21505 L 437.05534,602.21505 Q 436.20184,602.21505 436.20184,603.06855 Z" />
          <path
             inkscape:connector-curvature="0"
             id="path4642"
             style="font-style:normal;font-variant:normal;font-weight:normal;font-stretch:normal;font-family:Prototype;-inkscape-font-specification:Prototype;fill:#767575;fill-opacity:1"
             d="M 496.20957,631.74616 Q 496.20957,628.67356 495.01467,626.3691 Q 493.90512,623.9793 492.02742,622.35765 Q 490.23507,620.65065 487.84527,619.79715 Q 485.54082,618.94365 483.23637,618.94365 L 465.99567,618.94365 Q 463.26447,618.94365 460.78932,619.8825 Q 458.39952,620.82135 456.60717,622.6137 Q 454.81482,624.3207 453.70527,626.79585 Q 452.68107,629.27101 452.68107,632.34361 L 452.68107,647.36521 Q 452.68107,650.35246 453.27852,653.25436 Q 453.87597,656.07091 455.41227,658.37536 Q 456.94857,660.59446 459.50907,662.04541 Q 462.06957,663.41101 465.99567,663.41101 L 481.18797,663.41101 Q 485.11407,663.41101 487.93062,662.64286 Q 490.74717,661.87471 492.53952,659.91166 Q 494.41722,657.94861 495.27072,654.61996 Q 496.20957,651.29131 496.20957,646.17031 L 496.20957,631.74616 Z M 485.71152,641.04931 L 485.71152,647.87731 Q 485.71152,650.09641 483.40707,651.54736 Q 481.18797,652.99831 478.11537,652.99831 L 470.26317,652.99831 Q 469.15362,652.99831 467.87337,652.82761 Q 466.59312,652.57156 465.48357,651.97411 Q 464.37402,651.29131 463.60587,650.18176 Q 462.92307,649.07221 462.92307,647.36521 L 462.92307,633.70921 Q 462.92307,632.51431 463.52052,631.66081 Q 464.11797,630.80731 464.97147,630.29521 Q 465.91032,629.78311 467.01987,629.61241 Q 468.12942,629.35636 469.23897,629.35636 L 478.54212,629.35636 Q 479.82237,629.35636 481.10262,629.61241 Q 482.38287,629.86846 483.40707,630.46591 Q 484.43127,630.97801 485.02872,631.83151 Q 485.71152,632.59966 485.71152,633.62386 L 485.71152,641.04931 Z" />
          <path
             inkscape:connector-curvature="0"
             id="path4644"
             style="font-style:normal;font-variant:normal;font-weight:normal;font-stretch:normal;font-family:Prototype;-inkscape-font-specification:Prototype;fill:#767575;fill-opacity:1"
             d="M 516.89095,630.20986 Q 516.89095,629.35636 517.74445,629.35636 L 524.74315,629.35636 Q 525.59665,629.35636 525.59665,628.50286 L 525.59665,619.79715 Q 525.59665,618.94365 524.74315,618.94365 L 517.74445,618.94365 Q 516.89095,618.94365 516.89095,618.09015 L 516.89095,607.4214 Q 516.89095,606.5679 516.03745,606.5679 L 507.33175,606.5679 Q 506.47825,606.5679 506.47825,607.4214 L 506.47825,618.09015 Q 506.47825,618.94365 505.62475,618.94365 L 501.1012,618.94365 Q 500.2477,618.94365 500.2477,619.79715 L 500.2477,628.50286 Q 500.2477,629.35636 501.1012,629.35636 L 505.62475,629.35636 Q 506.47825,629.35636 506.47825,630.20986 L 506.47825,656.83906 Q 506.47825,659.48491 508.612,661.44796 Q 510.74575,663.41101 513.98905,663.41101 L 524.74315,663.41101 Q 525.59665,663.41101 525.59665,662.55751 L 525.59665,653.85181 Q 525.59665,653.08366 524.91385,652.99831 L 517.74445,652.99831 Q 516.89095,652.99831 516.89095,652.14481 L 516.89095,630.20986 Z" />
        </g>
        <g
           id="text8180"
           style="font-style:normal;font-variant:normal;font-weight:normal;font-stretch:normal;font-size:80px;line-height:125%;font-family:paola;-inkscape-font-specification:paola;letter-spacing:0px;word-spacing:0px;fill:#ff6000;fill-opacity:1;stroke:none;stroke-width:1px;stroke-linecap:butt;stroke-linejoin:miter;stroke-opacity:1">
          <path
             inkscape:connector-curvature="0"
             id="path4647"
             style="font-style:normal;font-variant:normal;font-weight:normal;font-stretch:normal;font-family:Prototype;-inkscape-font-specification:Prototype;fill:#ff6000;fill-opacity:1"
             d="M 183.74482,610.42617 L 162.06482,610.42617 Q 158.94482,610.42617 158.94482,607.78617 L 158.94482,564.26617 Q 158.94482,563.46617 158.14482,563.46617 L 148.14482,563.46617 Q 147.34482,563.46617 147.34482,564.26617 L 147.34482,606.82617 Q 147.34482,613.54617 150.14482,616.90617 Q 152.94482,620.18617 159.58482,620.74617 Q 159.98482,620.82617 160.54482,620.82617 Q 161.10482,620.82617 161.74482,620.82617 L 183.74482,620.82617 Q 184.54482,620.82617 184.54482,620.02617 L 184.54482,611.22617 Q 184.54482,610.42617 183.74482,610.42617 Z" />
          <path
             inkscape:connector-curvature="0"
             id="path4649"
             style="font-style:normal;font-variant:normal;font-weight:normal;font-stretch:normal;font-family:Prototype;-inkscape-font-specification:Prototype;fill:#ff6000;fill-opacity:1"
             d="M 188.36232,620.02617 Q 188.36232,620.82617 189.16232,620.82617 L 197.32232,620.82617 Q 198.12232,620.82617 198.12232,620.02617 L 198.12232,579.94617 Q 198.12232,579.14617 197.32232,579.14617 L 189.16232,579.14617 Q 188.36232,579.14617 188.36232,579.94617 L 188.36232,620.02617 Z M 188.36232,564.26617 L 188.36232,572.42617 Q 188.36232,573.22617 189.16232,573.22617 L 197.32232,573.22617 Q 198.12232,573.22617 198.12232,572.42617 L 198.12232,564.26617 Q 198.12232,563.46617 197.32232,563.46617 L 189.16232,563.46617 Q 188.36232,563.46617 188.36232,564.26617 Z" />
          <path
             inkscape:connector-curvature="0"
             id="path4651"
             style="font-style:normal;font-variant:normal;font-weight:normal;font-stretch:normal;font-family:Prototype;-inkscape-font-specification:Prototype;fill:#ff6000;fill-opacity:1"
             d="M 214.52857,578.34617 L 214.52857,564.26617 Q 214.52857,563.46617 213.72857,563.46617 L 205.56857,563.46617 Q 204.76857,563.46617 204.76857,564.26617 L 204.76857,620.02617 Q 204.76857,620.82617 205.56857,620.82617 L 230.44857,620.82617 Q 234.12857,620.82617 236.84857,618.98617 Q 239.64857,617.06617 241.40857,614.18617 Q 243.16857,611.22617 244.04857,607.54617 Q 244.92857,603.86617 244.92857,600.26617 Q 244.92857,595.54617 244.04857,591.62617 Q 243.24857,587.70617 241.48857,584.98617 Q 239.72857,582.18617 237.00857,580.66617 Q 234.28857,579.14617 230.44857,579.14617 L 215.32857,579.14617 Q 214.52857,579.14617 214.52857,578.34617 Z M 214.52857,589.70617 Q 214.52857,588.90617 215.32857,588.90617 L 224.04857,588.90617 Q 226.52857,588.90617 228.52857,589.38617 Q 230.60857,589.78617 232.04857,591.06617 Q 233.56857,592.26617 234.36857,594.50617 Q 235.16857,596.74617 235.16857,600.26617 Q 235.16857,603.54617 234.36857,605.62617 Q 233.56857,607.70617 232.12857,608.90617 Q 230.68857,610.10617 228.60857,610.58617 Q 226.52857,611.06617 224.04857,611.06617 L 215.32857,611.06617 Q 214.52857,611.06617 214.52857,610.26617 L 214.52857,589.70617 Z" />
          <path
             inkscape:connector-curvature="0"
             id="path4653"
             style="font-style:normal;font-variant:normal;font-weight:normal;font-stretch:normal;font-family:Prototype;-inkscape-font-specification:Prototype;fill:#ff6000;fill-opacity:1"
             d="M 259.77607,579.14617 Q 257.61607,579.14617 255.69607,580.02617 Q 253.77607,580.82617 252.33607,582.26617 Q 250.89607,583.70617 250.01607,585.62617 Q 249.21607,587.54617 249.21607,589.62617 L 249.21607,620.02617 Q 249.21607,620.82617 250.01607,620.82617 L 258.97607,620.82617 Q 259.77607,620.82617 259.77607,620.02617 L 259.77607,592.42617 Q 259.77607,591.94617 260.01607,591.38617 Q 260.25607,590.74617 260.65607,590.26617 Q 261.13607,589.70617 261.69607,589.30617 Q 262.25607,588.90617 262.97607,588.90617 L 270.65607,588.90617 Q 271.45607,588.90617 271.45607,588.10617 L 271.45607,579.94617 Q 271.45607,579.14617 270.65607,579.14617 L 259.77607,579.14617 Z" />
          <path
             inkscape:connector-curvature="0"
             id="path4655"
             style="font-style:normal;font-variant:normal;font-weight:normal;font-stretch:normal;font-family:Prototype;-inkscape-font-specification:Prototype;fill:#ff6000;fill-opacity:1"
             d="M 284.34607,604.66617 L 313.94607,604.66617 Q 314.74607,604.66617 314.74607,603.86617 L 314.74607,595.54617 Q 314.74607,591.78617 313.62607,588.74617 Q 312.58607,585.70617 310.26607,583.62617 Q 307.94607,581.46617 304.34607,580.34617 Q 300.74607,579.14617 295.78607,579.14617 Q 291.78607,579.14617 287.78607,580.18617 Q 283.86607,581.14617 280.66607,583.62617 Q 277.54607,586.10617 275.54607,590.34617 Q 273.62607,594.50617 273.62607,600.90617 Q 273.62607,606.18617 274.74607,609.94617 Q 275.94607,613.70617 278.66607,616.18617 Q 281.46607,618.58617 285.94607,619.70617 Q 290.50607,620.82617 297.22607,620.82617 L 310.74607,620.82617 Q 311.54607,620.82617 311.54607,620.02617 L 311.54607,611.86617 Q 311.54607,611.06617 310.74607,611.06617 L 291.70607,611.06617 Q 290.02607,611.06617 288.50607,610.66617 Q 286.98607,610.18617 285.86607,609.46617 Q 284.82607,608.66617 284.18607,607.70617 Q 283.54607,606.66617 283.54607,605.46617 Q 283.54607,604.66617 284.34607,604.66617 Z M 284.34607,595.30617 Q 283.54607,595.30617 283.54607,594.50617 Q 283.54607,592.98617 284.74607,591.78617 Q 285.94607,590.50617 287.70607,589.70617 Q 289.54607,588.82617 291.46607,588.34617 Q 293.46607,587.86617 295.06607,587.86617 Q 300.10607,587.86617 302.90607,589.70617 Q 305.70607,591.46617 305.70607,594.50617 Q 305.70607,595.30617 304.90607,595.30617 L 284.34607,595.30617 Z" />
        </g>
        <g
           id="text8184"
           style="font-style:normal;font-variant:normal;font-weight:normal;font-stretch:normal;font-size:85.35001373px;line-height:125%;font-family:paola;-inkscape-font-specification:paola;letter-spacing:0px;word-spacing:0px;fill:#ff6000;fill-opacity:1;stroke:none;stroke-width:1px;stroke-linecap:butt;stroke-linejoin:miter;stroke-opacity:1"
           transform="scale(1.0668752,0.93731676)">
          <path
             inkscape:connector-curvature="0"
             id="path4658"
             style="font-style:normal;font-variant:normal;font-weight:normal;font-stretch:normal;font-family:Prototype;-inkscape-font-specification:Prototype;fill:#ff6000;fill-opacity:1"
             d="M 367.75133,602.94063 L 367.75133,661.49074 Q 367.75133,662.34424 368.60483,662.34424 L 379.27359,662.34424 Q 380.12709,662.34424 380.12709,661.49074 L 380.12709,641.94558 Q 380.12709,641.09208 380.98059,641.09208 L 395.83149,641.09208 Q 400.61109,641.09208 403.93974,639.72648 Q 407.26839,638.27553 409.31679,635.62968 Q 411.36519,632.98383 412.30404,629.31378 Q 413.24289,625.64373 413.24289,621.12018 Q 413.24289,616.76733 412.30404,613.09728 Q 411.36519,609.42723 409.31679,606.78138 Q 407.26839,604.13553 403.93974,602.68458 Q 400.61109,601.14828 395.83149,601.14828 L 368.60483,601.14828 Q 367.75133,601.14828 367.75133,602.00178 L 367.75133,602.94063 Z M 397.28244,612.24378 Q 398.81874,612.24378 399.67224,613.35333 Q 400.61109,614.37753 401.03784,615.82848 Q 401.46459,617.27943 401.54994,618.81573 Q 401.72064,620.26668 401.72064,621.12018 Q 401.72064,621.97368 401.54994,623.50998 Q 401.46454,624.96093 401.03784,626.41188 Q 400.61109,627.86283 399.67224,628.97238 Q 398.81874,629.99658 397.28244,629.99658 L 380.98059,629.99658 Q 380.12709,629.99658 380.12709,629.14308 L 380.12709,613.09728 Q 380.12709,612.24378 380.98059,612.24378 L 397.28244,612.24378 Z" />
          <path
             inkscape:connector-curvature="0"
             id="path4660"
             style="font-style:normal;font-variant:normal;font-weight:normal;font-stretch:normal;font-family:Prototype;-inkscape-font-specification:Prototype;fill:#ff6000;fill-opacity:1"
             d="M 417.76111,661.49074 Q 417.76111,662.34424 418.61461,662.34424 L 427.32031,662.34424 Q 428.17381,662.34424 428.17381,661.49074 L 428.17381,618.73038 Q 428.17381,617.87688 427.32031,617.87688 L 418.61461,617.87688 Q 417.76111,617.87688 417.76111,618.73038 L 417.76111,661.49074 Z M 417.76111,602.00178 L 417.76111,610.70748 Q 417.76111,611.56098 418.61461,611.56098 L 427.32031,611.56098 Q 428.17381,611.56098 428.17381,610.70748 L 428.17381,602.00178 Q 428.17381,601.14828 427.32031,601.14828 L 418.61461,601.14828 Q 417.76111,601.14828 417.76111,602.00178 Z" />
          <path
             inkscape:connector-curvature="0"
             id="path4662"
             style="font-style:normal;font-variant:normal;font-weight:normal;font-stretch:normal;font-family:Prototype;-inkscape-font-specification:Prototype;fill:#ff6000;fill-opacity:1"
             d="M 435.26453,602.00178 L 435.26453,652.61434 L 435.26453,652.78504 L 435.26453,661.49074 Q 435.26453,662.34424 436.11803,662.34424 L 444.82373,662.34424 Q 445.67723,662.34424 445.67723,661.49074 L 445.67723,652.78504 L 445.67723,652.61434 L 445.67723,602.00178 Q 445.67723,601.14828 444.82373,601.14828 L 436.11803,601.14828 Q 435.26453,601.14828 435.26453,602.00178 Z" />
          <path
             inkscape:connector-curvature="0"
             id="path4664"
             style="font-style:normal;font-variant:normal;font-weight:normal;font-stretch:normal;font-family:Prototype;-inkscape-font-specification:Prototype;fill:#ff6000;fill-opacity:1"
             d="M 495.27226,630.67938 Q 495.27226,627.60678 494.07736,625.30233 Q 492.96781,622.91253 491.09011,621.29088 Q 489.29776,619.58388 486.90796,618.73038 Q 484.60351,617.87688 482.29906,617.87688 L 465.05835,617.87688 Q 462.32715,617.87688 459.852,618.81573 Q 457.4622,619.75458 455.66985,621.54693 Q 453.8775,623.25393 452.76795,625.72908 Q 451.74375,628.20423 451.74375,631.27683 L 451.74375,646.29844 Q 451.74375,649.28569 452.3412,652.18759 Q 452.93865,655.00414 454.47495,657.30859 Q 456.01125,659.52769 458.57175,660.97864 Q 461.13225,662.34424 465.05835,662.34424 L 480.25066,662.34424 Q 484.17676,662.34424 486.99331,661.57609 Q 489.80986,660.80794 491.60221,658.84489 Q 493.47991,656.88184 494.33341,653.55319 Q 495.27226,650.22454 495.27226,645.10354 L 495.27226,630.67938 Z M 484.77421,639.98253 L 484.77421,646.81054 Q 484.77421,649.02964 482.46976,650.48059 Q 480.25066,651.93154 477.17805,651.93154 L 469.32585,651.93154 Q 468.2163,651.93154 466.93605,651.76084 Q 465.6558,651.50479 464.54625,650.90734 Q 463.4367,650.22454 462.66855,649.11499 Q 461.98575,648.00544 461.98575,646.29844 L 461.98575,632.64243 Q 461.98575,631.44753 462.5832,630.59403 Q 463.18065,629.74053 464.03415,629.22843 Q 464.973,628.71633 466.08255,628.54563 Q 467.1921,628.28958 468.30165,628.28958 L 477.60481,628.28958 Q 478.88506,628.28958 480.16531,628.54563 Q 481.44556,628.80168 482.46976,629.39913 Q 483.49396,629.91123 484.09141,630.76473 Q 484.77421,631.53288 484.77421,632.55708 L 484.77421,639.98253 Z" />
          <path
             inkscape:connector-curvature="0"
             id="path4666"
             style="font-style:normal;font-variant:normal;font-weight:normal;font-stretch:normal;font-family:Prototype;-inkscape-font-specification:Prototype;fill:#ff6000;fill-opacity:1"
             d="M 515.95363,629.14308 Q 515.95363,628.28958 516.80713,628.28958 L 523.80583,628.28958 Q 524.65933,628.28958 524.65933,627.43608 L 524.65933,618.73038 Q 524.65933,617.87688 523.80583,617.87688 L 516.80713,617.87688 Q 515.95363,617.87688 515.95363,617.02338 L 515.95363,606.35463 Q 515.95363,605.50113 515.10013,605.50113 L 506.39443,605.50113 Q 505.54093,605.50113 505.54093,606.35463 L 505.54093,617.02338 Q 505.54093,617.87688 504.68743,617.87688 L 500.16388,617.87688 Q 499.31038,617.87688 499.31038,618.73038 L 499.31038,627.43608 Q 499.31038,628.28958 500.16388,628.28958 L 504.68743,628.28958 Q 505.54093,628.28958 505.54093,629.14308 L 505.54093,655.77229 Q 505.54093,658.41814 507.67468,660.38119 Q 509.80843,662.34424 513.05173,662.34424 L 523.80583,662.34424 Q 524.65933,662.34424 524.65933,661.49074 L 524.65933,652.78504 Q 524.65933,652.01689 523.97653,651.93154 L 516.80713,651.93154 Q 515.95363,651.93154 515.95363,651.07804 L 515.95363,629.14308 Z" />
        </g>
        <g
           transform="matrix(0.96592582,-0.25881904,0.25881904,0.96592582,-135.96662,113.04244)"
           id="g8188">
          <g
             transform="matrix(0.5969555,0.15995374,-0.15995374,0.5969555,187.18453,347.03367)"
             style="fill:#767575;fill-opacity:1;stroke:none"
             id="g8190">
            <path
               sodipodi:nodetypes="ccccc"
               style="fill:#767575;fill-opacity:1;fill-rule:evenodd;stroke:none;stroke-width:1px;stroke-linecap:butt;stroke-linejoin:miter;stroke-opacity:1"
               d="M 403.66024,282.97714 L 350.98876,230.30666 C 305.52073,201.13204 216.95499,216.43139 216.95499,216.43139 L 350.81024,334.95314 Z"
               id="path8192"
               inkscape:connector-curvature="0" />
            <path
               style="fill:#767575;fill-opacity:1;fill-rule:evenodd;stroke:none;stroke-width:1px;stroke-linecap:butt;stroke-linejoin:miter;stroke-opacity:1"
               d="M 308.8794,376.0474 L 308.8794,308.0664 L 344.9544,339.9714 Z"
               id="path8194"
               inkscape:connector-curvature="0" />
            <path
               style="fill:#767575;fill-opacity:1;fill-rule:evenodd;stroke:none;stroke-width:1px;stroke-linecap:butt;stroke-linejoin:miter;stroke-opacity:1"
               d="M 403.66024,274.97714 L 354.42124,225.73914 L 403.66024,176.49414 Z"
               id="path8196"
               inkscape:connector-curvature="0" />
            <path
               style="fill:#767575;fill-opacity:1;fill-rule:evenodd;stroke:none;stroke-width:1px;stroke-linecap:butt;stroke-linejoin:miter;stroke-opacity:1"
               d="M 440.99424,208.82914 L 408.66024,176.49414 L 408.66024,208.82914 Z"
               id="path8198"
               inkscape:connector-curvature="0" />
          </g>
          <g
             id="g8200"
             style="stroke:none"
             transform="matrix(0.5969555,0.15995374,-0.15995374,0.5969555,186.71819,346.56976)">
            <path
               inkscape:connector-curvature="0"
               id="path8202"
               d="M 403.66024,282.97714 L 350.98876,230.30666 C 305.52073,201.13204 216.95499,216.43139 216.95499,216.43139 L 350.81024,334.95314 Z"
               style="fill:#47adc5;fill-opacity:1;fill-rule:evenodd;stroke:none;stroke-width:1px;stroke-linecap:butt;stroke-linejoin:miter;stroke-opacity:1"
               sodipodi:nodetypes="ccccc" />
            <path
               inkscape:connector-curvature="0"
               id="path8204"
               d="M 308.8794,376.0474 L 308.8794,308.0664 L 344.9544,339.9714 Z"
               style="fill:#47adc5;fill-opacity:1;fill-rule:evenodd;stroke:none;stroke-width:1px;stroke-linecap:butt;stroke-linejoin:miter;stroke-opacity:1" />
            <path
               inkscape:connector-curvature="0"
               id="path8206"
               d="M 403.66024,274.97714 L 354.42124,225.73914 L 403.66024,176.49414 Z"
               style="fill:#feb103;fill-opacity:1;fill-rule:evenodd;stroke:none;stroke-width:1px;stroke-linecap:butt;stroke-linejoin:miter;stroke-opacity:1" />
            <path
               inkscape:connector-curvature="0"
               id="path8208"
               d="M 440.99424,208.82914 L 408.66024,176.49414 L 408.66024,208.82914 Z"
               style="fill:#feb103;fill-opacity:1;fill-rule:evenodd;stroke:none;stroke-width:1px;stroke-linecap:butt;stroke-linejoin:miter;stroke-opacity:1" />
          </g>
        </g>
      </g>
    </g>
    <g
       transform="translate(-134.39309,-220.9483)"
       id="g8226"
       inkscape:export-xdpi="56.630924"
       inkscape:export-ydpi="56.630924">
      <g
         style="font-style:normal;font-variant:normal;font-weight:normal;font-stretch:normal;font-size:80px;line-height:125%;font-family:paola;-inkscape-font-specification:paola;letter-spacing:0px;word-spacing:0px;fill:#767575;fill-opacity:1;stroke:none;stroke-width:1px;stroke-linecap:butt;stroke-linejoin:miter;stroke-opacity:1"
         id="text8228">
        <path
           d="M 184.74482,611.42617 L 163.06482,611.42617 Q 159.94482,611.42617 159.94482,608.78617 L 159.94482,565.26617 Q 159.94482,564.46617 159.14482,564.46617 L 149.14482,564.46617 Q 148.34482,564.46617 148.34482,565.26617 L 148.34482,607.82617 Q 148.34482,614.54617 151.14482,617.90617 Q 153.94482,621.18617 160.58482,621.74617 Q 160.98482,621.82617 161.54482,621.82617 Q 162.10482,621.82617 162.74482,621.82617 L 184.74482,621.82617 Q 185.54482,621.82617 185.54482,621.02617 L 185.54482,612.22617 Q 185.54482,611.42617 184.74482,611.42617 Z"
           style="font-style:normal;font-variant:normal;font-weight:normal;font-stretch:normal;font-family:Prototype;-inkscape-font-specification:Prototype;fill:#767575;fill-opacity:1"
           id="path4581"
           inkscape:connector-curvature="0" />
        <path
           d="M 189.36232,621.02617 Q 189.36232,621.82617 190.16232,621.82617 L 198.32232,621.82617 Q 199.12232,621.82617 199.12232,621.02617 L 199.12232,580.94617 Q 199.12232,580.14617 198.32232,580.14617 L 190.16232,580.14617 Q 189.36232,580.14617 189.36232,580.94617 L 189.36232,621.02617 Z M 189.36232,565.26617 L 189.36232,573.42617 Q 189.36232,574.22617 190.16232,574.22617 L 198.32232,574.22617 Q 199.12232,574.22617 199.12232,573.42617 L 199.12232,565.26617 Q 199.12232,564.46617 198.32232,564.46617 L 190.16232,564.46617 Q 189.36232,564.46617 189.36232,565.26617 Z"
           style="font-style:normal;font-variant:normal;font-weight:normal;font-stretch:normal;font-family:Prototype;-inkscape-font-specification:Prototype;fill:#767575;fill-opacity:1"
           id="path4583"
           inkscape:connector-curvature="0" />
        <path
           d="M 215.52857,579.34617 L 215.52857,565.26617 Q 215.52857,564.46617 214.72857,564.46617 L 206.56857,564.46617 Q 205.76857,564.46617 205.76857,565.26617 L 205.76857,621.02617 Q 205.76857,621.82617 206.56857,621.82617 L 231.44857,621.82617 Q 235.12857,621.82617 237.84857,619.98617 Q 240.64857,618.06617 242.40857,615.18617 Q 244.16857,612.22617 245.04857,608.54617 Q 245.92857,604.86617 245.92857,601.26617 Q 245.92857,596.54617 245.04857,592.62617 Q 244.24857,588.70617 242.48857,585.98617 Q 240.72857,583.18617 238.00857,581.66617 Q 235.28857,580.14617 231.44857,580.14617 L 216.32857,580.14617 Q 215.52857,580.14617 215.52857,579.34617 Z M 215.52857,590.70617 Q 215.52857,589.90617 216.32857,589.90617 L 225.04857,589.90617 Q 227.52857,589.90617 229.52857,590.38617 Q 231.60857,590.78617 233.04857,592.06617 Q 234.56857,593.26617 235.36857,595.50617 Q 236.16857,597.74617 236.16857,601.26617 Q 236.16857,604.54617 235.36857,606.62617 Q 234.56857,608.70617 233.12857,609.90617 Q 231.68857,611.10617 229.60857,611.58617 Q 227.52857,612.06617 225.04857,612.06617 L 216.32857,612.06617 Q 215.52857,612.06617 215.52857,611.26617 L 215.52857,590.70617 Z"
           style="font-style:normal;font-variant:normal;font-weight:normal;font-stretch:normal;font-family:Prototype;-inkscape-font-specification:Prototype;fill:#767575;fill-opacity:1"
           id="path4585"
           inkscape:connector-curvature="0" />
        <path
           d="M 260.77607,580.14617 Q 258.61607,580.14617 256.69607,581.02617 Q 254.77607,581.82617 253.33607,583.26617 Q 251.89607,584.70617 251.01607,586.62617 Q 250.21607,588.54617 250.21607,590.62617 L 250.21607,621.02617 Q 250.21607,621.82617 251.01607,621.82617 L 259.97607,621.82617 Q 260.77607,621.82617 260.77607,621.02617 L 260.77607,593.42617 Q 260.77607,592.94617 261.01607,592.38617 Q 261.25607,591.74617 261.65607,591.26617 Q 262.13607,590.70617 262.69607,590.30617 Q 263.25607,589.90617 263.97607,589.90617 L 271.65607,589.90617 Q 272.45607,589.90617 272.45607,589.10617 L 272.45607,580.94617 Q 272.45607,580.14617 271.65607,580.14617 L 260.77607,580.14617 Z"
           style="font-style:normal;font-variant:normal;font-weight:normal;font-stretch:normal;font-family:Prototype;-inkscape-font-specification:Prototype;fill:#767575;fill-opacity:1"
           id="path4587"
           inkscape:connector-curvature="0" />
        <path
           d="M 285.34607,605.66617 L 314.94607,605.66617 Q 315.74607,605.66617 315.74607,604.86617 L 315.74607,596.54617 Q 315.74607,592.78617 314.62607,589.74617 Q 313.58607,586.70617 311.26607,584.62617 Q 308.94607,582.46617 305.34607,581.34617 Q 301.74607,580.14617 296.78607,580.14617 Q 292.78607,580.14617 288.78607,581.18617 Q 284.86607,582.14617 281.66607,584.62617 Q 278.54607,587.10617 276.54607,591.34617 Q 274.62607,595.50617 274.62607,601.90617 Q 274.62607,607.18617 275.74607,610.94617 Q 276.94607,614.70617 279.66607,617.18617 Q 282.46607,619.58617 286.94607,620.70617 Q 291.50607,621.82617 298.22607,621.82617 L 311.74607,621.82617 Q 312.54607,621.82617 312.54607,621.02617 L 312.54607,612.86617 Q 312.54607,612.06617 311.74607,612.06617 L 292.70607,612.06617 Q 291.02607,612.06617 289.50607,611.66617 Q 287.98607,611.18617 286.86607,610.46617 Q 285.82607,609.66617 285.18607,608.70617 Q 284.54607,607.66617 284.54607,606.46617 Q 284.54607,605.66617 285.34607,605.66617 Z M 285.34607,596.30617 Q 284.54607,596.30617 284.54607,595.50617 Q 284.54607,593.98617 285.74607,592.78617 Q 286.94607,591.50617 288.70607,590.70617 Q 290.54607,589.82617 292.46607,589.34617 Q 294.46607,588.86617 296.06607,588.86617 Q 301.10607,588.86617 303.90607,590.70617 Q 306.70607,592.46617 306.70607,595.50617 Q 306.70607,596.30617 305.90607,596.30617 L 285.34607,596.30617 Z"
           style="font-style:normal;font-variant:normal;font-weight:normal;font-stretch:normal;font-family:Prototype;-inkscape-font-specification:Prototype;fill:#767575;fill-opacity:1"
           id="path4589"
           inkscape:connector-curvature="0" />
      </g>
      <g
         transform="scale(1.0668752,0.93731676)"
         style="font-style:normal;font-variant:normal;font-weight:normal;font-stretch:normal;font-size:85.35001373px;line-height:125%;font-family:paola;-inkscape-font-specification:paola;letter-spacing:0px;word-spacing:0px;fill:#767575;fill-opacity:1;stroke:none;stroke-width:1px;stroke-linecap:butt;stroke-linejoin:miter;stroke-opacity:1"
         id="text8232">
        <path
           d="M 368.68865,604.0074 L 368.68865,662.55751 Q 368.68865,663.41101 369.54215,663.41101 L 380.2109,663.41101 Q 381.0644,663.41101 381.0644,662.55751 L 381.0644,643.01236 Q 381.0644,642.15886 381.9179,642.15886 L 396.76881,642.15886 Q 401.54841,642.15886 404.87706,640.79326 Q 408.20571,639.34231 410.25411,636.69646 Q 412.30251,634.05061 413.24136,630.38056 Q 414.18021,626.7105 414.18021,622.18695 Q 414.18021,617.8341 413.24136,614.16405 Q 412.30251,610.494 410.25411,607.84815 Q 408.20571,605.2023 404.87706,603.75135 Q 401.54841,602.21505 396.76881,602.21505 L 369.54215,602.21505 Q 368.68865,602.21505 368.68865,603.06855 L 368.68865,604.0074 Z M 398.21976,613.31055 Q 399.75606,613.31055 400.60956,614.4201 Q 401.54841,615.4443 401.97516,616.89525 Q 402.40191,618.3462 402.48726,619.8825 Q 402.65796,621.33345 402.65796,622.18695 Q 402.65796,623.04045 402.48726,624.57675 Q 402.40186,626.0277 401.97516,627.47865 Q 401.54841,628.92961 400.60956,630.03916 Q 399.75606,631.06336 398.21976,631.06336 L 381.9179,631.06336 Q 381.0644,631.06336 381.0644,630.20986 L 381.0644,614.16405 Q 381.0644,613.31055 381.9179,613.31055 L 398.21976,613.31055 Z"
           style="font-style:normal;font-variant:normal;font-weight:normal;font-stretch:normal;font-family:Prototype;-inkscape-font-specification:Prototype;fill:#767575;fill-opacity:1"
           id="path4592"
           inkscape:connector-curvature="0" />
        <path
           d="M 418.69842,662.55751 Q 418.69842,663.41101 419.55192,663.41101 L 428.25763,663.41101 Q 429.11113,663.41101 429.11113,662.55751 L 429.11113,619.79715 Q 429.11113,618.94365 428.25763,618.94365 L 419.55192,618.94365 Q 418.69842,618.94365 418.69842,619.79715 L 418.69842,662.55751 Z M 418.69842,603.06855 L 418.69842,611.77425 Q 418.69842,612.62775 419.55192,612.62775 L 428.25763,612.62775 Q 429.11113,612.62775 429.11113,611.77425 L 429.11113,603.06855 Q 429.11113,602.21505 428.25763,602.21505 L 419.55192,602.21505 Q 418.69842,602.21505 418.69842,603.06855 Z"
           style="font-style:normal;font-variant:normal;font-weight:normal;font-stretch:normal;font-family:Prototype;-inkscape-font-specification:Prototype;fill:#767575;fill-opacity:1"
           id="path4594"
           inkscape:connector-curvature="0" />
        <path
           d="M 436.20184,603.06855 L 436.20184,653.68111 L 436.20184,653.85181 L 436.20184,662.55751 Q 436.20184,663.41101 437.05534,663.41101 L 445.76104,663.41101 Q 446.61454,663.41101 446.61454,662.55751 L 446.61454,653.85181 L 446.61454,653.68111 L 446.61454,603.06855 Q 446.61454,602.21505 445.76104,602.21505 L 437.05534,602.21505 Q 436.20184,602.21505 436.20184,603.06855 Z"
           style="font-style:normal;font-variant:normal;font-weight:normal;font-stretch:normal;font-family:Prototype;-inkscape-font-specification:Prototype;fill:#767575;fill-opacity:1"
           id="path4596"
           inkscape:connector-curvature="0" />
        <path
           d="M 496.20957,631.74616 Q 496.20957,628.67356 495.01467,626.3691 Q 493.90512,623.9793 492.02742,622.35765 Q 490.23507,620.65065 487.84527,619.79715 Q 485.54082,618.94365 483.23637,618.94365 L 465.99567,618.94365 Q 463.26447,618.94365 460.78932,619.8825 Q 458.39952,620.82135 456.60717,622.6137 Q 454.81482,624.3207 453.70527,626.79585 Q 452.68107,629.27101 452.68107,632.34361 L 452.68107,647.36521 Q 452.68107,650.35246 453.27852,653.25436 Q 453.87597,656.07091 455.41227,658.37536 Q 456.94857,660.59446 459.50907,662.04541 Q 462.06957,663.41101 465.99567,663.41101 L 481.18797,663.41101 Q 485.11407,663.41101 487.93062,662.64286 Q 490.74717,661.87471 492.53952,659.91166 Q 494.41722,657.94861 495.27072,654.61996 Q 496.20957,651.29131 496.20957,646.17031 L 496.20957,631.74616 Z M 485.71152,641.04931 L 485.71152,647.87731 Q 485.71152,650.09641 483.40707,651.54736 Q 481.18797,652.99831 478.11537,652.99831 L 470.26317,652.99831 Q 469.15362,652.99831 467.87337,652.82761 Q 466.59312,652.57156 465.48357,651.97411 Q 464.37402,651.29131 463.60587,650.18176 Q 462.92307,649.07221 462.92307,647.36521 L 462.92307,633.70921 Q 462.92307,632.51431 463.52052,631.66081 Q 464.11797,630.80731 464.97147,630.29521 Q 465.91032,629.78311 467.01987,629.61241 Q 468.12942,629.35636 469.23897,629.35636 L 478.54212,629.35636 Q 479.82237,629.35636 481.10262,629.61241 Q 482.38287,629.86846 483.40707,630.46591 Q 484.43127,630.97801 485.02872,631.83151 Q 485.71152,632.59966 485.71152,633.62386 L 485.71152,641.04931 Z"
           style="font-style:normal;font-variant:normal;font-weight:normal;font-stretch:normal;font-family:Prototype;-inkscape-font-specification:Prototype;fill:#767575;fill-opacity:1"
           id="path4598"
           inkscape:connector-curvature="0" />
        <path
           d="M 516.89095,630.20986 Q 516.89095,629.35636 517.74445,629.35636 L 524.74315,629.35636 Q 525.59665,629.35636 525.59665,628.50286 L 525.59665,619.79715 Q 525.59665,618.94365 524.74315,618.94365 L 517.74445,618.94365 Q 516.89095,618.94365 516.89095,618.09015 L 516.89095,607.4214 Q 516.89095,606.5679 516.03745,606.5679 L 507.33175,606.5679 Q 506.47825,606.5679 506.47825,607.4214 L 506.47825,618.09015 Q 506.47825,618.94365 505.62475,618.94365 L 501.1012,618.94365 Q 500.2477,618.94365 500.2477,619.79715 L 500.2477,628.50286 Q 500.2477,629.35636 501.1012,629.35636 L 505.62475,629.35636 Q 506.47825,629.35636 506.47825,630.20986 L 506.47825,656.83906 Q 506.47825,659.48491 508.612,661.44796 Q 510.74575,663.41101 513.98905,663.41101 L 524.74315,663.41101 Q 525.59665,663.41101 525.59665,662.55751 L 525.59665,653.85181 Q 525.59665,653.08366 524.91385,652.99831 L 517.74445,652.99831 Q 516.89095,652.99831 516.89095,652.14481 L 516.89095,630.20986 Z"
           style="font-style:normal;font-variant:normal;font-weight:normal;font-stretch:normal;font-family:Prototype;-inkscape-font-specification:Prototype;fill:#767575;fill-opacity:1"
           id="path4600"
           inkscape:connector-curvature="0" />
      </g>
      <g
         style="font-style:normal;font-variant:normal;font-weight:normal;font-stretch:normal;font-size:80px;line-height:125%;font-family:paola;-inkscape-font-specification:paola;letter-spacing:0px;word-spacing:0px;fill:#ff6000;fill-opacity:1;stroke:none;stroke-width:1px;stroke-linecap:butt;stroke-linejoin:miter;stroke-opacity:1"
         id="text8236">
        <path
           d="M 183.74482,610.42617 L 162.06482,610.42617 Q 158.94482,610.42617 158.94482,607.78617 L 158.94482,564.26617 Q 158.94482,563.46617 158.14482,563.46617 L 148.14482,563.46617 Q 147.34482,563.46617 147.34482,564.26617 L 147.34482,606.82617 Q 147.34482,613.54617 150.14482,616.90617 Q 152.94482,620.18617 159.58482,620.74617 Q 159.98482,620.82617 160.54482,620.82617 Q 161.10482,620.82617 161.74482,620.82617 L 183.74482,620.82617 Q 184.54482,620.82617 184.54482,620.02617 L 184.54482,611.22617 Q 184.54482,610.42617 183.74482,610.42617 Z"
           style="font-style:normal;font-variant:normal;font-weight:normal;font-stretch:normal;font-family:Prototype;-inkscape-font-specification:Prototype;fill:#ff6000;fill-opacity:1"
           id="path4603"
           inkscape:connector-curvature="0" />
        <path
           d="M 188.36232,620.02617 Q 188.36232,620.82617 189.16232,620.82617 L 197.32232,620.82617 Q 198.12232,620.82617 198.12232,620.02617 L 198.12232,579.94617 Q 198.12232,579.14617 197.32232,579.14617 L 189.16232,579.14617 Q 188.36232,579.14617 188.36232,579.94617 L 188.36232,620.02617 Z M 188.36232,564.26617 L 188.36232,572.42617 Q 188.36232,573.22617 189.16232,573.22617 L 197.32232,573.22617 Q 198.12232,573.22617 198.12232,572.42617 L 198.12232,564.26617 Q 198.12232,563.46617 197.32232,563.46617 L 189.16232,563.46617 Q 188.36232,563.46617 188.36232,564.26617 Z"
           style="font-style:normal;font-variant:normal;font-weight:normal;font-stretch:normal;font-family:Prototype;-inkscape-font-specification:Prototype;fill:#ff6000;fill-opacity:1"
           id="path4605"
           inkscape:connector-curvature="0" />
        <path
           d="M 214.52857,578.34617 L 214.52857,564.26617 Q 214.52857,563.46617 213.72857,563.46617 L 205.56857,563.46617 Q 204.76857,563.46617 204.76857,564.26617 L 204.76857,620.02617 Q 204.76857,620.82617 205.56857,620.82617 L 230.44857,620.82617 Q 234.12857,620.82617 236.84857,618.98617 Q 239.64857,617.06617 241.40857,614.18617 Q 243.16857,611.22617 244.04857,607.54617 Q 244.92857,603.86617 244.92857,600.26617 Q 244.92857,595.54617 244.04857,591.62617 Q 243.24857,587.70617 241.48857,584.98617 Q 239.72857,582.18617 237.00857,580.66617 Q 234.28857,579.14617 230.44857,579.14617 L 215.32857,579.14617 Q 214.52857,579.14617 214.52857,578.34617 Z M 214.52857,589.70617 Q 214.52857,588.90617 215.32857,588.90617 L 224.04857,588.90617 Q 226.52857,588.90617 228.52857,589.38617 Q 230.60857,589.78617 232.04857,591.06617 Q 233.56857,592.26617 234.36857,594.50617 Q 235.16857,596.74617 235.16857,600.26617 Q 235.16857,603.54617 234.36857,605.62617 Q 233.56857,607.70617 232.12857,608.90617 Q 230.68857,610.10617 228.60857,610.58617 Q 226.52857,611.06617 224.04857,611.06617 L 215.32857,611.06617 Q 214.52857,611.06617 214.52857,610.26617 L 214.52857,589.70617 Z"
           style="font-style:normal;font-variant:normal;font-weight:normal;font-stretch:normal;font-family:Prototype;-inkscape-font-specification:Prototype;fill:#ff6000;fill-opacity:1"
           id="path4607"
           inkscape:connector-curvature="0" />
        <path
           d="M 259.77607,579.14617 Q 257.61607,579.14617 255.69607,580.02617 Q 253.77607,580.82617 252.33607,582.26617 Q 250.89607,583.70617 250.01607,585.62617 Q 249.21607,587.54617 249.21607,589.62617 L 249.21607,620.02617 Q 249.21607,620.82617 250.01607,620.82617 L 258.97607,620.82617 Q 259.77607,620.82617 259.77607,620.02617 L 259.77607,592.42617 Q 259.77607,591.94617 260.01607,591.38617 Q 260.25607,590.74617 260.65607,590.26617 Q 261.13607,589.70617 261.69607,589.30617 Q 262.25607,588.90617 262.97607,588.90617 L 270.65607,588.90617 Q 271.45607,588.90617 271.45607,588.10617 L 271.45607,579.94617 Q 271.45607,579.14617 270.65607,579.14617 L 259.77607,579.14617 Z"
           style="font-style:normal;font-variant:normal;font-weight:normal;font-stretch:normal;font-family:Prototype;-inkscape-font-specification:Prototype;fill:#ff6000;fill-opacity:1"
           id="path4609"
           inkscape:connector-curvature="0" />
        <path
           d="M 284.34607,604.66617 L 313.94607,604.66617 Q 314.74607,604.66617 314.74607,603.86617 L 314.74607,595.54617 Q 314.74607,591.78617 313.62607,588.74617 Q 312.58607,585.70617 310.26607,583.62617 Q 307.94607,581.46617 304.34607,580.34617 Q 300.74607,579.14617 295.78607,579.14617 Q 291.78607,579.14617 287.78607,580.18617 Q 283.86607,581.14617 280.66607,583.62617 Q 277.54607,586.10617 275.54607,590.34617 Q 273.62607,594.50617 273.62607,600.90617 Q 273.62607,606.18617 274.74607,609.94617 Q 275.94607,613.70617 278.66607,616.18617 Q 281.46607,618.58617 285.94607,619.70617 Q 290.50607,620.82617 297.22607,620.82617 L 310.74607,620.82617 Q 311.54607,620.82617 311.54607,620.02617 L 311.54607,611.86617 Q 311.54607,611.06617 310.74607,611.06617 L 291.70607,611.06617 Q 290.02607,611.06617 288.50607,610.66617 Q 286.98607,610.18617 285.86607,609.46617 Q 284.82607,608.66617 284.18607,607.70617 Q 283.54607,606.66617 283.54607,605.46617 Q 283.54607,604.66617 284.34607,604.66617 Z M 284.34607,595.30617 Q 283.54607,595.30617 283.54607,594.50617 Q 283.54607,592.98617 284.74607,591.78617 Q 285.94607,590.50617 287.70607,589.70617 Q 289.54607,588.82617 291.46607,588.34617 Q 293.46607,587.86617 295.06607,587.86617 Q 300.10607,587.86617 302.90607,589.70617 Q 305.70607,591.46617 305.70607,594.50617 Q 305.70607,595.30617 304.90607,595.30617 L 284.34607,595.30617 Z"
           style="font-style:normal;font-variant:normal;font-weight:normal;font-stretch:normal;font-family:Prototype;-inkscape-font-specification:Prototype;fill:#ff6000;fill-opacity:1"
           id="path4611"
           inkscape:connector-curvature="0" />
      </g>
      <g
         transform="scale(1.0668752,0.93731676)"
         style="font-style:normal;font-variant:normal;font-weight:normal;font-stretch:normal;font-size:85.35001373px;line-height:125%;font-family:paola;-inkscape-font-specification:paola;letter-spacing:0px;word-spacing:0px;fill:#ff6000;fill-opacity:1;stroke:none;stroke-width:1px;stroke-linecap:butt;stroke-linejoin:miter;stroke-opacity:1"
         id="text8240">
        <path
           d="M 367.75133,602.94063 L 367.75133,661.49074 Q 367.75133,662.34424 368.60483,662.34424 L 379.27359,662.34424 Q 380.12709,662.34424 380.12709,661.49074 L 380.12709,641.94558 Q 380.12709,641.09208 380.98059,641.09208 L 395.83149,641.09208 Q 400.61109,641.09208 403.93974,639.72648 Q 407.26839,638.27553 409.31679,635.62968 Q 411.36519,632.98383 412.30404,629.31378 Q 413.24289,625.64373 413.24289,621.12018 Q 413.24289,616.76733 412.30404,613.09728 Q 411.36519,609.42723 409.31679,606.78138 Q 407.26839,604.13553 403.93974,602.68458 Q 400.61109,601.14828 395.83149,601.14828 L 368.60483,601.14828 Q 367.75133,601.14828 367.75133,602.00178 L 367.75133,602.94063 Z M 397.28244,612.24378 Q 398.81874,612.24378 399.67224,613.35333 Q 400.61109,614.37753 401.03784,615.82848 Q 401.46459,617.27943 401.54994,618.81573 Q 401.72064,620.26668 401.72064,621.12018 Q 401.72064,621.97368 401.54994,623.50998 Q 401.46454,624.96093 401.03784,626.41188 Q 400.61109,627.86283 399.67224,628.97238 Q 398.81874,629.99658 397.28244,629.99658 L 380.98059,629.99658 Q 380.12709,629.99658 380.12709,629.14308 L 380.12709,613.09728 Q 380.12709,612.24378 380.98059,612.24378 L 397.28244,612.24378 Z"
           style="font-style:normal;font-variant:normal;font-weight:normal;font-stretch:normal;font-family:Prototype;-inkscape-font-specification:Prototype;fill:#ff6000;fill-opacity:1"
           id="path4614"
           inkscape:connector-curvature="0" />
        <path
           d="M 417.76111,661.49074 Q 417.76111,662.34424 418.61461,662.34424 L 427.32031,662.34424 Q 428.17381,662.34424 428.17381,661.49074 L 428.17381,618.73038 Q 428.17381,617.87688 427.32031,617.87688 L 418.61461,617.87688 Q 417.76111,617.87688 417.76111,618.73038 L 417.76111,661.49074 Z M 417.76111,602.00178 L 417.76111,610.70748 Q 417.76111,611.56098 418.61461,611.56098 L 427.32031,611.56098 Q 428.17381,611.56098 428.17381,610.70748 L 428.17381,602.00178 Q 428.17381,601.14828 427.32031,601.14828 L 418.61461,601.14828 Q 417.76111,601.14828 417.76111,602.00178 Z"
           style="font-style:normal;font-variant:normal;font-weight:normal;font-stretch:normal;font-family:Prototype;-inkscape-font-specification:Prototype;fill:#ff6000;fill-opacity:1"
           id="path4616"
           inkscape:connector-curvature="0" />
        <path
           d="M 435.26453,602.00178 L 435.26453,652.61434 L 435.26453,652.78504 L 435.26453,661.49074 Q 435.26453,662.34424 436.11803,662.34424 L 444.82373,662.34424 Q 445.67723,662.34424 445.67723,661.49074 L 445.67723,652.78504 L 445.67723,652.61434 L 445.67723,602.00178 Q 445.67723,601.14828 444.82373,601.14828 L 436.11803,601.14828 Q 435.26453,601.14828 435.26453,602.00178 Z"
           style="font-style:normal;font-variant:normal;font-weight:normal;font-stretch:normal;font-family:Prototype;-inkscape-font-specification:Prototype;fill:#ff6000;fill-opacity:1"
           id="path4618"
           inkscape:connector-curvature="0" />
        <path
           d="M 495.27226,630.67938 Q 495.27226,627.60678 494.07736,625.30233 Q 492.96781,622.91253 491.09011,621.29088 Q 489.29776,619.58388 486.90796,618.73038 Q 484.60351,617.87688 482.29906,617.87688 L 465.05835,617.87688 Q 462.32715,617.87688 459.852,618.81573 Q 457.4622,619.75458 455.66985,621.54693 Q 453.8775,623.25393 452.76795,625.72908 Q 451.74375,628.20423 451.74375,631.27683 L 451.74375,646.29844 Q 451.74375,649.28569 452.3412,652.18759 Q 452.93865,655.00414 454.47495,657.30859 Q 456.01125,659.52769 458.57175,660.97864 Q 461.13225,662.34424 465.05835,662.34424 L 480.25066,662.34424 Q 484.17676,662.34424 486.99331,661.57609 Q 489.80986,660.80794 491.60221,658.84489 Q 493.47991,656.88184 494.33341,653.55319 Q 495.27226,650.22454 495.27226,645.10354 L 495.27226,630.67938 Z M 484.77421,639.98253 L 484.77421,646.81054 Q 484.77421,649.02964 482.46976,650.48059 Q 480.25066,651.93154 477.17805,651.93154 L 469.32585,651.93154 Q 468.2163,651.93154 466.93605,651.76084 Q 465.6558,651.50479 464.54625,650.90734 Q 463.4367,650.22454 462.66855,649.11499 Q 461.98575,648.00544 461.98575,646.29844 L 461.98575,632.64243 Q 461.98575,631.44753 462.5832,630.59403 Q 463.18065,629.74053 464.03415,629.22843 Q 464.973,628.71633 466.08255,628.54563 Q 467.1921,628.28958 468.30165,628.28958 L 477.60481,628.28958 Q 478.88506,628.28958 480.16531,628.54563 Q 481.44556,628.80168 482.46976,629.39913 Q 483.49396,629.91123 484.09141,630.76473 Q 484.77421,631.53288 484.77421,632.55708 L 484.77421,639.98253 Z"
           style="font-style:normal;font-variant:normal;font-weight:normal;font-stretch:normal;font-family:Prototype;-inkscape-font-specification:Prototype;fill:#ff6000;fill-opacity:1"
           id="path4620"
           inkscape:connector-curvature="0" />
        <path
           d="M 515.95363,629.14308 Q 515.95363,628.28958 516.80713,628.28958 L 523.80583,628.28958 Q 524.65933,628.28958 524.65933,627.43608 L 524.65933,618.73038 Q 524.65933,617.87688 523.80583,617.87688 L 516.80713,617.87688 Q 515.95363,617.87688 515.95363,617.02338 L 515.95363,606.35463 Q 515.95363,605.50113 515.10013,605.50113 L 506.39443,605.50113 Q 505.54093,605.50113 505.54093,606.35463 L 505.54093,617.02338 Q 505.54093,617.87688 504.68743,617.87688 L 500.16388,617.87688 Q 499.31038,617.87688 499.31038,618.73038 L 499.31038,627.43608 Q 499.31038,628.28958 500.16388,628.28958 L 504.68743,628.28958 Q 505.54093,628.28958 505.54093,629.14308 L 505.54093,655.77229 Q 505.54093,658.41814 507.67468,660.38119 Q 509.80843,662.34424 513.05173,662.34424 L 523.80583,662.34424 Q 524.65933,662.34424 524.65933,661.49074 L 524.65933,652.78504 Q 524.65933,652.01689 523.97653,651.93154 L 516.80713,651.93154 Q 515.95363,651.93154 515.95363,651.07804 L 515.95363,629.14308 Z"
           style="font-style:normal;font-variant:normal;font-weight:normal;font-stretch:normal;font-family:Prototype;-inkscape-font-specification:Prototype;fill:#ff6000;fill-opacity:1"
           id="path4622"
           inkscape:connector-curvature="0" />
      </g>
      <g
         id="g8244"
         transform="matrix(0.96592582,-0.25881904,0.25881904,0.96592582,-135.96662,113.04244)">
        <g
           id="g8246"
           style="fill:#767575;fill-opacity:1;stroke:none"
           transform="matrix(0.5969555,0.15995374,-0.15995374,0.5969555,187.18453,347.03367)">
          <path
             inkscape:connector-curvature="0"
             id="path8248"
             d="M 403.66024,282.97714 L 350.98876,230.30666 C 305.52073,201.13204 216.95499,216.43139 216.95499,216.43139 L 350.81024,334.95314 Z"
             style="fill:#767575;fill-opacity:1;fill-rule:evenodd;stroke:none;stroke-width:1px;stroke-linecap:butt;stroke-linejoin:miter;stroke-opacity:1"
             sodipodi:nodetypes="ccccc" />
          <path
             inkscape:connector-curvature="0"
             id="path8250"
             d="M 308.8794,376.0474 L 308.8794,308.0664 L 344.9544,339.9714 Z"
             style="fill:#767575;fill-opacity:1;fill-rule:evenodd;stroke:none;stroke-width:1px;stroke-linecap:butt;stroke-linejoin:miter;stroke-opacity:1" />
          <path
             inkscape:connector-curvature="0"
             id="path8252"
             d="M 403.66024,274.97714 L 354.42124,225.73914 L 403.66024,176.49414 Z"
             style="fill:#767575;fill-opacity:1;fill-rule:evenodd;stroke:none;stroke-width:1px;stroke-linecap:butt;stroke-linejoin:miter;stroke-opacity:1" />
          <path
             inkscape:connector-curvature="0"
             id="path8254"
             d="M 440.99424,208.82914 L 408.66024,176.49414 L 408.66024,208.82914 Z"
             style="fill:#767575;fill-opacity:1;fill-rule:evenodd;stroke:none;stroke-width:1px;stroke-linecap:butt;stroke-linejoin:miter;stroke-opacity:1" />
        </g>
        <g
           transform="matrix(0.5969555,0.15995374,-0.15995374,0.5969555,186.71819,346.56976)"
           style="stroke:none"
           id="g8256">
          <path
             sodipodi:nodetypes="ccccc"
             style="fill:#47adc5;fill-opacity:1;fill-rule:evenodd;stroke:none;stroke-width:1px;stroke-linecap:butt;stroke-linejoin:miter;stroke-opacity:1"
             d="M 403.66024,282.97714 L 350.98876,230.30666 C 305.52073,201.13204 216.95499,216.43139 216.95499,216.43139 L 350.81024,334.95314 Z"
             id="path8258"
             inkscape:connector-curvature="0" />
          <path
             style="fill:#47adc5;fill-opacity:1;fill-rule:evenodd;stroke:none;stroke-width:1px;stroke-linecap:butt;stroke-linejoin:miter;stroke-opacity:1"
             d="M 308.8794,376.0474 L 308.8794,308.0664 L 344.9544,339.9714 Z"
             id="path8260"
             inkscape:connector-curvature="0" />
          <path
             style="fill:#feb103;fill-opacity:1;fill-rule:evenodd;stroke:none;stroke-width:1px;stroke-linecap:butt;stroke-linejoin:miter;stroke-opacity:1"
             d="M 403.66024,274.97714 L 354.42124,225.73914 L 403.66024,176.49414 Z"
             id="path8262"
             inkscape:connector-curvature="0" />
          <path
             style="fill:#feb103;fill-opacity:1;fill-rule:evenodd;stroke:none;stroke-width:1px;stroke-linecap:butt;stroke-linejoin:miter;stroke-opacity:1"
             d="M 440.99424,208.82914 L 408.66024,176.49414 L 408.66024,208.82914 Z"
             id="path8264"
             inkscape:connector-curvature="0" />
        </g>
      </g>
    </g>
    <g
       id="g3579"
       inkscape:export-filename="./LP_logo_square.png"
       inkscape:export-xdpi="360"
       inkscape:export-ydpi="360"
       transform="translate(-37.42618,-379.85478)">
      <rect
         rx="30"
         ry="30"
         y="-31.627954"
         x="5.3619666"
         height="500"
         width="500"
         id="rect3526"
         style="color:#000000;display:inline;overflow:visible;visibility:visible;opacity:1;fill:#e5e5e5;fill-opacity:1;fill-rule:nonzero;stroke:none;stroke-width:2;stroke-linecap:round;stroke-linejoin:round;stroke-miterlimit:4;stroke-dasharray:none;stroke-dashoffset:0;stroke-opacity:1;marker:none;enable-background:accumulate" />
      <g
         id="g4328"
         inkscape:export-xdpi="177.41391"
         inkscape:export-ydpi="177.41391"
         transform="matrix(2.5876865,0,0,2.5876865,-706.2251,-2452.6924)">
        <g
           transform="matrix(0.96592582,-0.25881904,0.25881904,0.96592582,-102.04982,555.17501)"
           id="g4332"
           inkscape:export-xdpi="64.777489"
           inkscape:export-ydpi="64.777489">
          <g
             transform="matrix(0.5969555,0.15995374,-0.15995374,0.5969555,187.18453,347.03367)"
             style="fill:#767575;fill-opacity:1;stroke:none"
             id="g4334">
            <path
               sodipodi:nodetypes="ccccc"
               style="fill:#767575;fill-opacity:1;fill-rule:evenodd;stroke:none;stroke-width:1px;stroke-linecap:butt;stroke-linejoin:miter;stroke-opacity:1"
               d="M 403.66024,282.97714 L 350.98876,230.30666 C 305.52073,201.13204 216.95499,216.43139 216.95499,216.43139 L 350.81024,334.95314 Z"
               id="path4336"
               inkscape:connector-curvature="0" />
            <path
               style="fill:#767575;fill-opacity:1;fill-rule:evenodd;stroke:none;stroke-width:1px;stroke-linecap:butt;stroke-linejoin:miter;stroke-opacity:1"
               d="M 308.8794,376.0474 L 308.8794,308.0664 L 344.9544,339.9714 Z"
               id="path4338"
               inkscape:connector-curvature="0" />
            <path
               style="fill:#767575;fill-opacity:1;fill-rule:evenodd;stroke:none;stroke-width:1px;stroke-linecap:butt;stroke-linejoin:miter;stroke-opacity:1"
               d="M 403.66024,274.97714 L 354.42124,225.73914 L 403.66024,176.49414 Z"
               id="path4340"
               inkscape:connector-curvature="0" />
            <path
               style="fill:#767575;fill-opacity:1;fill-rule:evenodd;stroke:none;stroke-width:1px;stroke-linecap:butt;stroke-linejoin:miter;stroke-opacity:1"
               d="M 440.99424,208.82914 L 408.66024,176.49414 L 408.66024,208.82914 Z"
               id="path4342"
               inkscape:connector-curvature="0" />
          </g>
          <g
             id="g4344"
             style="stroke:none"
             transform="matrix(0.5969555,0.15995374,-0.15995374,0.5969555,186.71819,346.56976)">
            <path
               inkscape:connector-curvature="0"
               id="path4346"
               d="M 403.66024,282.97714 L 350.98876,230.30666 C 305.52073,201.13204 216.95499,216.43139 216.95499,216.43139 L 350.81024,334.95314 Z"
               style="fill:#47adc5;fill-opacity:1;fill-rule:evenodd;stroke:none;stroke-width:1px;stroke-linecap:butt;stroke-linejoin:miter;stroke-opacity:1"
               sodipodi:nodetypes="ccccc" />
            <path
               inkscape:connector-curvature="0"
               id="path4348"
               d="M 308.8794,376.0474 L 308.8794,308.0664 L 344.9544,339.9714 Z"
               style="fill:#47adc5;fill-opacity:1;fill-rule:evenodd;stroke:none;stroke-width:1px;stroke-linecap:butt;stroke-linejoin:miter;stroke-opacity:1" />
            <path
               inkscape:connector-curvature="0"
               id="path4350"
               d="M 403.66024,274.97714 L 354.42124,225.73914 L 403.66024,176.49414 Z"
               style="fill:#feb103;fill-opacity:1;fill-rule:evenodd;stroke:none;stroke-width:1px;stroke-linecap:butt;stroke-linejoin:miter;stroke-opacity:1" />
            <path
               inkscape:connector-curvature="0"
               id="path4352"
               d="M 440.99424,208.82914 L 408.66024,176.49414 L 408.66024,208.82914 Z"
               style="fill:#feb103;fill-opacity:1;fill-rule:evenodd;stroke:none;stroke-width:1px;stroke-linecap:butt;stroke-linejoin:miter;stroke-opacity:1" />
          </g>
        </g>
      </g>
      <g
         transform="matrix(1.161436,0,0,1.161436,-673.02805,-449.62803)"
         id="g4506">
        <path
           inkscape:connector-curvature="0"
           d="M 664.54607,745.48685 L 642.86607,745.48685 Q 639.74607,745.48685 639.74607,742.84685 L 639.74607,699.32685 Q 639.74607,698.52685 638.94607,698.52685 L 628.94607,698.52685 Q 628.14607,698.52685 628.14607,699.32685 L 628.14607,741.88685 Q 628.14607,748.60685 630.94607,751.96685 Q 633.74607,755.24685 640.38607,755.80685 Q 640.78607,755.88685 641.34607,755.88685 Q 641.90607,755.88685 642.54607,755.88685 L 664.54607,755.88685 Q 665.34607,755.88685 665.34607,755.08685 L 665.34607,746.28685 Q 665.34607,745.48685 664.54607,745.48685 Z"
           style="font-style:normal;font-variant:normal;font-weight:normal;font-stretch:normal;font-size:medium;line-height:125%;font-family:Prototype;-inkscape-font-specification:Prototype;letter-spacing:0px;word-spacing:0px;fill:#767575;fill-opacity:1;stroke:none;stroke-width:1px;stroke-linecap:butt;stroke-linejoin:miter;stroke-opacity:1"
           id="path4356" />
        <path
           inkscape:connector-curvature="0"
           d="M 669.16357,755.08685 Q 669.16357,755.88685 669.96357,755.88685 L 678.12357,755.88685 Q 678.92357,755.88685 678.92357,755.08685 L 678.92357,715.00685 Q 678.92357,714.20685 678.12357,714.20685 L 669.96357,714.20685 Q 669.16357,714.20685 669.16357,715.00685 L 669.16357,755.08685 Z M 669.16357,699.32685 L 669.16357,707.48685 Q 669.16357,708.28685 669.96357,708.28685 L 678.12357,708.28685 Q 678.92357,708.28685 678.92357,707.48685 L 678.92357,699.32685 Q 678.92357,698.52685 678.12357,698.52685 L 669.96357,698.52685 Q 669.16357,698.52685 669.16357,699.32685 Z"
           style="font-style:normal;font-variant:normal;font-weight:normal;font-stretch:normal;font-size:medium;line-height:125%;font-family:Prototype;-inkscape-font-specification:Prototype;letter-spacing:0px;word-spacing:0px;fill:#767575;fill-opacity:1;stroke:none;stroke-width:1px;stroke-linecap:butt;stroke-linejoin:miter;stroke-opacity:1"
           id="path4358" />
        <path
           inkscape:connector-curvature="0"
           d="M 695.32982,713.40685 L 695.32982,699.32685 Q 695.32982,698.52685 694.52982,698.52685 L 686.36982,698.52685 Q 685.56982,698.52685 685.56982,699.32685 L 685.56982,755.08685 Q 685.56982,755.88685 686.36982,755.88685 L 711.24982,755.88685 Q 714.92982,755.88685 717.64982,754.04685 Q 720.44982,752.12685 722.20982,749.24685 Q 723.96982,746.28685 724.84982,742.60685 Q 725.72982,738.92685 725.72982,735.32685 Q 725.72982,730.60685 724.84982,726.68685 Q 724.04982,722.76685 722.28982,720.04685 Q 720.52982,717.24685 717.80982,715.72685 Q 715.08982,714.20685 711.24982,714.20685 L 696.12982,714.20685 Q 695.32982,714.20685 695.32982,713.40685 Z M 695.32982,724.76685 Q 695.32982,723.96685 696.12982,723.96685 L 704.84982,723.96685 Q 707.32982,723.96685 709.32982,724.44685 Q 711.40982,724.84685 712.84982,726.12685 Q 714.36982,727.32685 715.16982,729.56685 Q 715.96982,731.80685 715.96982,735.32685 Q 715.96982,738.60685 715.16982,740.68685 Q 714.36982,742.76685 712.92982,743.96685 Q 711.48982,745.16685 709.40982,745.64685 Q 707.32982,746.12685 704.84982,746.12685 L 696.12982,746.12685 Q 695.32982,746.12685 695.32982,745.32685 L 695.32982,724.76685 Z"
           style="font-style:normal;font-variant:normal;font-weight:normal;font-stretch:normal;font-size:medium;line-height:125%;font-family:Prototype;-inkscape-font-specification:Prototype;letter-spacing:0px;word-spacing:0px;fill:#767575;fill-opacity:1;stroke:none;stroke-width:1px;stroke-linecap:butt;stroke-linejoin:miter;stroke-opacity:1"
           id="path4360" />
        <path
           inkscape:connector-curvature="0"
           d="M 740.57732,714.20685 Q 738.41732,714.20685 736.49732,715.08685 Q 734.57732,715.88685 733.13732,717.32685 Q 731.69732,718.76685 730.81732,720.68685 Q 730.01732,722.60685 730.01732,724.68685 L 730.01732,755.08685 Q 730.01732,755.88685 730.81732,755.88685 L 739.77732,755.88685 Q 740.57732,755.88685 740.57732,755.08685 L 740.57732,727.48685 Q 740.57732,727.00685 740.81732,726.44685 Q 741.05732,725.80685 741.45732,725.32685 Q 741.93732,724.76685 742.49732,724.36685 Q 743.05732,723.96685 743.77732,723.96685 L 751.45732,723.96685 Q 752.25732,723.96685 752.25732,723.16685 L 752.25732,715.00685 Q 752.25732,714.20685 751.45732,714.20685 L 740.57732,714.20685 Z"
           style="font-style:normal;font-variant:normal;font-weight:normal;font-stretch:normal;font-size:medium;line-height:125%;font-family:Prototype;-inkscape-font-specification:Prototype;letter-spacing:0px;word-spacing:0px;fill:#767575;fill-opacity:1;stroke:none;stroke-width:1px;stroke-linecap:butt;stroke-linejoin:miter;stroke-opacity:1"
           id="path4362" />
        <path
           inkscape:connector-curvature="0"
           d="M 765.14732,739.72685 L 794.74732,739.72685 Q 795.54732,739.72685 795.54732,738.92685 L 795.54732,730.60685 Q 795.54732,726.84685 794.42732,723.80685 Q 793.38732,720.76685 791.06732,718.68685 Q 788.74732,716.52685 785.14732,715.40685 Q 781.54732,714.20685 776.58732,714.20685 Q 772.58732,714.20685 768.58732,715.24685 Q 764.66732,716.20685 761.46732,718.68685 Q 758.34732,721.16685 756.34732,725.40685 Q 754.42732,729.56685 754.42732,735.96685 Q 754.42732,741.24685 755.54732,745.00685 Q 756.74732,748.76685 759.46732,751.24685 Q 762.26732,753.64685 766.74732,754.76685 Q 771.30732,755.88685 778.02732,755.88685 L 791.54732,755.88685 Q 792.34732,755.88685 792.34732,755.08685 L 792.34732,746.92685 Q 792.34732,746.12685 791.54732,746.12685 L 772.50732,746.12685 Q 770.82732,746.12685 769.30732,745.72685 Q 767.78732,745.24685 766.66732,744.52685 Q 765.62732,743.72685 764.98732,742.76685 Q 764.34732,741.72685 764.34732,740.52685 Q 764.34732,739.72685 765.14732,739.72685 Z M 765.14732,730.36685 Q 764.34732,730.36685 764.34732,729.56685 Q 764.34732,728.04685 765.54732,726.84685 Q 766.74732,725.56685 768.50732,724.76685 Q 770.34732,723.88685 772.26732,723.40685 Q 774.26732,722.92685 775.86732,722.92685 Q 780.90732,722.92685 783.70732,724.76685 Q 786.50732,726.52685 786.50732,729.56685 Q 786.50732,730.36685 785.70732,730.36685 L 765.14732,730.36685 Z"
           style="font-style:normal;font-variant:normal;font-weight:normal;font-stretch:normal;font-size:medium;line-height:125%;font-family:Prototype;-inkscape-font-specification:Prototype;letter-spacing:0px;word-spacing:0px;fill:#767575;fill-opacity:1;stroke:none;stroke-width:1px;stroke-linecap:butt;stroke-linejoin:miter;stroke-opacity:1"
           id="path4364" />
        <path
           inkscape:connector-curvature="0"
           d="M 804.14603,700.20694 L 804.14603,755.08694 Q 804.14603,755.88694 805.05661,755.88694 L 816.43883,755.88694 Q 817.34941,755.88694 817.34941,755.08694 L 817.34941,736.76694 Q 817.34941,735.96694 818.25999,735.96694 L 834.10405,735.96694 Q 839.20329,735.96694 842.75454,734.68694 Q 846.3058,733.32694 848.49119,730.84694 Q 850.67657,728.36694 851.67821,724.92694 Q 852.67984,721.48694 852.67984,717.24694 Q 852.67984,713.16694 851.67821,709.72694 Q 850.67657,706.28694 848.49119,703.80694 Q 846.3058,701.32694 842.75454,699.96694 Q 839.20329,698.52694 834.10405,698.52694 L 805.05661,698.52694 Q 804.14603,698.52694 804.14603,699.32694 L 804.14603,700.20694 Z M 835.65204,708.92694 Q 837.29108,708.92694 838.20165,709.96694 Q 839.20329,710.92694 839.65858,712.28694 Q 840.11387,713.64694 840.20493,715.08694 Q 840.38704,716.44694 840.38704,717.24694 Q 840.38704,718.04694 840.20493,719.48694 Q 840.11383,720.84694 839.65858,722.20694 Q 839.20329,723.56694 838.20165,724.60694 Q 837.29108,725.56694 835.65204,725.56694 L 818.25999,725.56694 Q 817.34941,725.56694 817.34941,724.76694 L 817.34941,709.72694 Q 817.34941,708.92694 818.25999,708.92694 L 835.65204,708.92694 Z"
           style="font-style:normal;font-variant:normal;font-weight:normal;font-stretch:normal;font-size:medium;line-height:125%;font-family:Prototype;-inkscape-font-specification:Prototype;letter-spacing:0px;word-spacing:0px;fill:#767575;fill-opacity:1;stroke:none;stroke-width:1px;stroke-linecap:butt;stroke-linejoin:miter;stroke-opacity:1"
           id="path4368" />
        <path
           inkscape:connector-curvature="0"
           d="M 857.50021,755.08694 Q 857.50021,755.88694 858.41079,755.88694 L 867.69869,755.88694 Q 868.60927,755.88694 868.60927,755.08694 L 868.60927,715.00694 Q 868.60927,714.20694 867.69869,714.20694 L 858.41079,714.20694 Q 857.50021,714.20694 857.50021,715.00694 L 857.50021,755.08694 Z M 857.50021,699.32694 L 857.50021,707.48694 Q 857.50021,708.28694 858.41079,708.28694 L 867.69869,708.28694 Q 868.60927,708.28694 868.60927,707.48694 L 868.60927,699.32694 Q 868.60927,698.52694 867.69869,698.52694 L 858.41079,698.52694 Q 857.50021,698.52694 857.50021,699.32694 Z"
           style="font-style:normal;font-variant:normal;font-weight:normal;font-stretch:normal;font-size:medium;line-height:125%;font-family:Prototype;-inkscape-font-specification:Prototype;letter-spacing:0px;word-spacing:0px;fill:#767575;fill-opacity:1;stroke:none;stroke-width:1px;stroke-linecap:butt;stroke-linejoin:miter;stroke-opacity:1"
           id="path4370" />
        <path
           inkscape:connector-curvature="0"
           d="M 876.17418,699.32694 L 876.17418,746.76694 L 876.17418,746.92694 L 876.17418,755.08694 Q 876.17418,755.88694 877.08475,755.88694 L 886.37265,755.88694 Q 887.28323,755.88694 887.28323,755.08694 L 887.28323,746.92694 L 887.28323,746.76694 L 887.28323,699.32694 Q 887.28323,698.52694 886.37265,698.52694 L 877.08475,698.52694 Q 876.17418,698.52694 876.17418,699.32694 Z"
           style="font-style:normal;font-variant:normal;font-weight:normal;font-stretch:normal;font-size:medium;line-height:125%;font-family:Prototype;-inkscape-font-specification:Prototype;letter-spacing:0px;word-spacing:0px;fill:#767575;fill-opacity:1;stroke:none;stroke-width:1px;stroke-linecap:butt;stroke-linejoin:miter;stroke-opacity:1"
           id="path4372" />
        <path
           inkscape:connector-curvature="0"
           d="M 940.1949,726.20694 Q 940.1949,723.32694 938.9201,721.16694 Q 937.7364,718.92694 935.7331,717.40694 Q 933.8209,715.80694 931.2713,715.00694 Q 928.81271,714.20694 926.35415,714.20694 L 907.96047,714.20694 Q 905.04662,714.20694 902.40595,715.08694 Q 899.85633,715.96694 897.94412,717.64694 Q 896.0319,719.24694 894.84815,721.56694 Q 893.75546,723.88694 893.75546,726.76694 L 893.75546,740.84694 Q 893.75546,743.64694 894.39286,746.36694 Q 895.03027,749.00694 896.66931,751.16694 Q 898.30835,753.24694 901.04008,754.60694 Q 903.77181,755.88694 907.96047,755.88694 L 924.16876,755.88694 Q 928.35742,755.88694 931.3623,755.16694 Q 934.3672,754.44694 936.2794,752.60694 Q 938.2827,750.76694 939.1933,747.64694 Q 940.1949,744.52694 940.1949,739.72694 L 940.1949,726.20694 Z M 928.99483,734.92694 L 928.99483,741.32694 Q 928.99483,743.40694 926.53626,744.76694 Q 924.16876,746.12694 920.89068,746.12694 L 912.51336,746.12694 Q 911.32961,746.12694 909.96375,745.96694 Q 908.59788,745.72694 907.41413,745.16694 Q 906.23038,744.52694 905.41086,743.48694 Q 904.68239,742.44694 904.68239,740.84694 L 904.68239,728.04694 Q 904.68239,726.92694 905.3198,726.12694 Q 905.9572,725.32694 906.86778,724.84694 Q 907.86942,724.36694 909.05317,724.20694 Q 910.23692,723.96694 911.42067,723.96694 L 921.34597,723.96694 Q 922.71184,723.96694 924.0777,724.20694 Q 925.44357,724.44694 926.53626,725.00694 Q 927.62896,725.48694 928.26636,726.28694 Q 928.99483,727.00694 928.99483,727.96694 L 928.99483,734.92694 Z"
           style="font-style:normal;font-variant:normal;font-weight:normal;font-stretch:normal;font-size:medium;line-height:125%;font-family:Prototype;-inkscape-font-specification:Prototype;letter-spacing:0px;word-spacing:0px;fill:#767575;fill-opacity:1;stroke:none;stroke-width:1px;stroke-linecap:butt;stroke-linejoin:miter;stroke-opacity:1"
           id="path4374" />
        <path
           inkscape:connector-curvature="0"
           d="M 962.2594,724.76694 Q 962.2594,723.96694 963.17,723.96694 L 970.6367,723.96694 Q 971.5473,723.96694 971.5473,723.16694 L 971.5473,715.00694 Q 971.5473,714.20694 970.6367,714.20694 L 963.17,714.20694 Q 962.2594,714.20694 962.2594,713.40694 L 962.2594,703.40694 Q 962.2594,702.60694 961.3488,702.60694 L 952.0609,702.60694 Q 951.1503,702.60694 951.1503,703.40694 L 951.1503,713.40694 Q 951.1503,714.20694 950.2398,714.20694 L 945.4137,714.20694 Q 944.5031,714.20694 944.5031,715.00694 L 944.5031,723.16694 Q 944.5031,723.96694 945.4137,723.96694 L 950.2398,723.96694 Q 951.1503,723.96694 951.1503,724.76694 L 951.1503,749.72694 Q 951.1503,752.20694 953.4268,754.04694 Q 955.7032,755.88694 959.1634,755.88694 L 970.6367,755.88694 Q 971.5473,755.88694 971.5473,755.08694 L 971.5473,746.92694 Q 971.5473,746.20694 970.8188,746.12694 L 963.17,746.12694 Q 962.2594,746.12694 962.2594,745.32694 L 962.2594,724.76694 Z"
           style="font-style:normal;font-variant:normal;font-weight:normal;font-stretch:normal;font-size:medium;line-height:125%;font-family:Prototype;-inkscape-font-specification:Prototype;letter-spacing:0px;word-spacing:0px;fill:#767575;fill-opacity:1;stroke:none;stroke-width:1px;stroke-linecap:butt;stroke-linejoin:miter;stroke-opacity:1"
           id="path4376" />
        <path
           inkscape:connector-curvature="0"
           d="M 663.54607,744.48685 L 641.86607,744.48685 Q 638.74607,744.48685 638.74607,741.84685 L 638.74607,698.32685 Q 638.74607,697.52685 637.94607,697.52685 L 627.94607,697.52685 Q 627.14607,697.52685 627.14607,698.32685 L 627.14607,740.88685 Q 627.14607,747.60685 629.94607,750.96685 Q 632.74607,754.24685 639.38607,754.80685 Q 639.78607,754.88685 640.34607,754.88685 Q 640.90607,754.88685 641.54607,754.88685 L 663.54607,754.88685 Q 664.34607,754.88685 664.34607,754.08685 L 664.34607,745.28685 Q 664.34607,744.48685 663.54607,744.48685 Z"
           style="font-style:normal;font-variant:normal;font-weight:normal;font-stretch:normal;font-size:medium;line-height:125%;font-family:Prototype;-inkscape-font-specification:Prototype;letter-spacing:0px;word-spacing:0px;fill:#ff6000;fill-opacity:1;stroke:none;stroke-width:1px;stroke-linecap:butt;stroke-linejoin:miter;stroke-opacity:1"
           id="path4380" />
        <path
           inkscape:connector-curvature="0"
           d="M 668.16357,754.08685 Q 668.16357,754.88685 668.96357,754.88685 L 677.12357,754.88685 Q 677.92357,754.88685 677.92357,754.08685 L 677.92357,714.00685 Q 677.92357,713.20685 677.12357,713.20685 L 668.96357,713.20685 Q 668.16357,713.20685 668.16357,714.00685 L 668.16357,754.08685 Z M 668.16357,698.32685 L 668.16357,706.48685 Q 668.16357,707.28685 668.96357,707.28685 L 677.12357,707.28685 Q 677.92357,707.28685 677.92357,706.48685 L 677.92357,698.32685 Q 677.92357,697.52685 677.12357,697.52685 L 668.96357,697.52685 Q 668.16357,697.52685 668.16357,698.32685 Z"
           style="font-style:normal;font-variant:normal;font-weight:normal;font-stretch:normal;font-size:medium;line-height:125%;font-family:Prototype;-inkscape-font-specification:Prototype;letter-spacing:0px;word-spacing:0px;fill:#ff6000;fill-opacity:1;stroke:none;stroke-width:1px;stroke-linecap:butt;stroke-linejoin:miter;stroke-opacity:1"
           id="path4382" />
        <path
           inkscape:connector-curvature="0"
           d="M 694.32982,712.40685 L 694.32982,698.32685 Q 694.32982,697.52685 693.52982,697.52685 L 685.36982,697.52685 Q 684.56982,697.52685 684.56982,698.32685 L 684.56982,754.08685 Q 684.56982,754.88685 685.36982,754.88685 L 710.24982,754.88685 Q 713.92982,754.88685 716.64982,753.04685 Q 719.44982,751.12685 721.20982,748.24685 Q 722.96982,745.28685 723.84982,741.60685 Q 724.72982,737.92685 724.72982,734.32685 Q 724.72982,729.60685 723.84982,725.68685 Q 723.04982,721.76685 721.28982,719.04685 Q 719.52982,716.24685 716.80982,714.72685 Q 714.08982,713.20685 710.24982,713.20685 L 695.12982,713.20685 Q 694.32982,713.20685 694.32982,712.40685 Z M 694.32982,723.76685 Q 694.32982,722.96685 695.12982,722.96685 L 703.84982,722.96685 Q 706.32982,722.96685 708.32982,723.44685 Q 710.40982,723.84685 711.84982,725.12685 Q 713.36982,726.32685 714.16982,728.56685 Q 714.96982,730.80685 714.96982,734.32685 Q 714.96982,737.60685 714.16982,739.68685 Q 713.36982,741.76685 711.92982,742.96685 Q 710.48982,744.16685 708.40982,744.64685 Q 706.32982,745.12685 703.84982,745.12685 L 695.12982,745.12685 Q 694.32982,745.12685 694.32982,744.32685 L 694.32982,723.76685 Z"
           style="font-style:normal;font-variant:normal;font-weight:normal;font-stretch:normal;font-size:medium;line-height:125%;font-family:Prototype;-inkscape-font-specification:Prototype;letter-spacing:0px;word-spacing:0px;fill:#ff6000;fill-opacity:1;stroke:none;stroke-width:1px;stroke-linecap:butt;stroke-linejoin:miter;stroke-opacity:1"
           id="path4384" />
        <path
           inkscape:connector-curvature="0"
           d="M 739.57732,713.20685 Q 737.41732,713.20685 735.49732,714.08685 Q 733.57732,714.88685 732.13732,716.32685 Q 730.69732,717.76685 729.81732,719.68685 Q 729.01732,721.60685 729.01732,723.68685 L 729.01732,754.08685 Q 729.01732,754.88685 729.81732,754.88685 L 738.77732,754.88685 Q 739.57732,754.88685 739.57732,754.08685 L 739.57732,726.48685 Q 739.57732,726.00685 739.81732,725.44685 Q 740.05732,724.80685 740.45732,724.32685 Q 740.93732,723.76685 741.49732,723.36685 Q 742.05732,722.96685 742.77732,722.96685 L 750.45732,722.96685 Q 751.25732,722.96685 751.25732,722.16685 L 751.25732,714.00685 Q 751.25732,713.20685 750.45732,713.20685 L 739.57732,713.20685 Z"
           style="font-style:normal;font-variant:normal;font-weight:normal;font-stretch:normal;font-size:medium;line-height:125%;font-family:Prototype;-inkscape-font-specification:Prototype;letter-spacing:0px;word-spacing:0px;fill:#ff6000;fill-opacity:1;stroke:none;stroke-width:1px;stroke-linecap:butt;stroke-linejoin:miter;stroke-opacity:1"
           id="path4386" />
        <path
           inkscape:connector-curvature="0"
           d="M 764.14732,738.72685 L 793.74732,738.72685 Q 794.54732,738.72685 794.54732,737.92685 L 794.54732,729.60685 Q 794.54732,725.84685 793.42732,722.80685 Q 792.38732,719.76685 790.06732,717.68685 Q 787.74732,715.52685 784.14732,714.40685 Q 780.54732,713.20685 775.58732,713.20685 Q 771.58732,713.20685 767.58732,714.24685 Q 763.66732,715.20685 760.46732,717.68685 Q 757.34732,720.16685 755.34732,724.40685 Q 753.42732,728.56685 753.42732,734.96685 Q 753.42732,740.24685 754.54732,744.00685 Q 755.74732,747.76685 758.46732,750.24685 Q 761.26732,752.64685 765.74732,753.76685 Q 770.30732,754.88685 777.02732,754.88685 L 790.54732,754.88685 Q 791.34732,754.88685 791.34732,754.08685 L 791.34732,745.92685 Q 791.34732,745.12685 790.54732,745.12685 L 771.50732,745.12685 Q 769.82732,745.12685 768.30732,744.72685 Q 766.78732,744.24685 765.66732,743.52685 Q 764.62732,742.72685 763.98732,741.76685 Q 763.34732,740.72685 763.34732,739.52685 Q 763.34732,738.72685 764.14732,738.72685 Z M 764.14732,729.36685 Q 763.34732,729.36685 763.34732,728.56685 Q 763.34732,727.04685 764.54732,725.84685 Q 765.74732,724.56685 767.50732,723.76685 Q 769.34732,722.88685 771.26732,722.40685 Q 773.26732,721.92685 774.86732,721.92685 Q 779.90732,721.92685 782.70732,723.76685 Q 785.50732,725.52685 785.50732,728.56685 Q 785.50732,729.36685 784.70732,729.36685 L 764.14732,729.36685 Z"
           style="font-style:normal;font-variant:normal;font-weight:normal;font-stretch:normal;font-size:medium;line-height:125%;font-family:Prototype;-inkscape-font-specification:Prototype;letter-spacing:0px;word-spacing:0px;fill:#ff6000;fill-opacity:1;stroke:none;stroke-width:1px;stroke-linecap:butt;stroke-linejoin:miter;stroke-opacity:1"
           id="path4388" />
        <path
           inkscape:connector-curvature="0"
           d="M 803.14602,699.20704 L 803.14602,754.08704 Q 803.14602,754.88704 804.0566,754.88704 L 815.43884,754.88704 Q 816.34942,754.88704 816.34942,754.08704 L 816.34942,735.76703 Q 816.34942,734.96703 817.25999,734.96703 L 833.10405,734.96703 Q 838.20329,734.96703 841.75454,733.68703 Q 845.3058,732.32703 847.49118,729.84703 Q 849.67657,727.36703 850.67821,723.92703 Q 851.67984,720.48703 851.67984,716.24703 Q 851.67984,712.16704 850.67821,708.72704 Q 849.67657,705.28704 847.49118,702.80704 Q 845.3058,700.32704 841.75454,698.96704 Q 838.20329,697.52704 833.10405,697.52704 L 804.0566,697.52704 Q 803.14602,697.52704 803.14602,698.32704 L 803.14602,699.20704 Z M 834.65203,707.92704 Q 836.29107,707.92704 837.20165,708.96704 Q 838.20329,709.92704 838.65858,711.28704 Q 839.11386,712.64704 839.20492,714.08704 Q 839.38704,715.44703 839.38704,716.24703 Q 839.38704,717.04703 839.20492,718.48703 Q 839.11382,719.84703 838.65858,721.20703 Q 838.20329,722.56703 837.20165,723.60703 Q 836.29107,724.56703 834.65203,724.56703 L 817.25999,724.56703 Q 816.34942,724.56703 816.34942,723.76703 L 816.34942,708.72704 Q 816.34942,707.92704 817.25999,707.92704 L 834.65203,707.92704 Z"
           style="font-style:normal;font-variant:normal;font-weight:normal;font-stretch:normal;font-size:medium;line-height:125%;font-family:Prototype;-inkscape-font-specification:Prototype;letter-spacing:0px;word-spacing:0px;fill:#ff6000;fill-opacity:1;stroke:none;stroke-width:1px;stroke-linecap:butt;stroke-linejoin:miter;stroke-opacity:1"
           id="path4392" />
        <path
           inkscape:connector-curvature="0"
           d="M 856.50022,754.08704 Q 856.50022,754.88704 857.4108,754.88704 L 866.69869,754.88704 Q 867.60927,754.88704 867.60927,754.08704 L 867.60927,714.00704 Q 867.60927,713.20704 866.69869,713.20704 L 857.4108,713.20704 Q 856.50022,713.20704 856.50022,714.00704 L 856.50022,754.08704 Z M 856.50022,698.32704 L 856.50022,706.48704 Q 856.50022,707.28704 857.4108,707.28704 L 866.69869,707.28704 Q 867.60927,707.28704 867.60927,706.48704 L 867.60927,698.32704 Q 867.60927,697.52704 866.69869,697.52704 L 857.4108,697.52704 Q 856.50022,697.52704 856.50022,698.32704 Z"
           style="font-style:normal;font-variant:normal;font-weight:normal;font-stretch:normal;font-size:medium;line-height:125%;font-family:Prototype;-inkscape-font-specification:Prototype;letter-spacing:0px;word-spacing:0px;fill:#ff6000;fill-opacity:1;stroke:none;stroke-width:1px;stroke-linecap:butt;stroke-linejoin:miter;stroke-opacity:1"
           id="path4394" />
        <path
           inkscape:connector-curvature="0"
           d="M 875.17418,698.32704 L 875.17418,745.76704 L 875.17418,745.92704 L 875.17418,754.08704 Q 875.17418,754.88704 876.08476,754.88704 L 885.37266,754.88704 Q 886.28323,754.88704 886.28323,754.08704 L 886.28323,745.92704 L 886.28323,745.76704 L 886.28323,698.32704 Q 886.28323,697.52704 885.37266,697.52704 L 876.08476,697.52704 Q 875.17418,697.52704 875.17418,698.32704 Z"
           style="font-style:normal;font-variant:normal;font-weight:normal;font-stretch:normal;font-size:medium;line-height:125%;font-family:Prototype;-inkscape-font-specification:Prototype;letter-spacing:0px;word-spacing:0px;fill:#ff6000;fill-opacity:1;stroke:none;stroke-width:1px;stroke-linecap:butt;stroke-linejoin:miter;stroke-opacity:1"
           id="path4396" />
        <path
           inkscape:connector-curvature="0"
           d="M 939.1949,725.20703 Q 939.1949,722.32703 937.9201,720.16703 Q 936.7364,717.92703 934.7331,716.40703 Q 932.8209,714.80703 930.27128,714.00704 Q 927.81272,713.20704 925.35416,713.20704 L 906.96047,713.20704 Q 904.04662,713.20704 901.40594,714.08704 Q 898.85633,714.96703 896.94411,716.64703 Q 895.0319,718.24703 893.84815,720.56703 Q 892.75545,722.88703 892.75545,725.76703 L 892.75545,739.84704 Q 892.75545,742.64704 893.39286,745.36704 Q 894.03026,748.00704 895.6693,750.16704 Q 897.30834,752.24704 900.04008,753.60704 Q 902.77181,754.88704 906.96047,754.88704 L 923.16877,754.88704 Q 927.35743,754.88704 930.36234,754.16704 Q 933.3672,753.44704 935.2795,751.60704 Q 937.2827,749.76704 938.1933,746.64704 Q 939.1949,743.52704 939.1949,738.72704 L 939.1949,725.20703 Z M 927.99483,733.92703 L 927.99483,740.32704 Q 927.99483,742.40704 925.53627,743.76704 Q 923.16877,745.12704 919.89068,745.12704 L 911.51336,745.12704 Q 910.32961,745.12704 908.96374,744.96704 Q 907.59787,744.72704 906.41412,744.16704 Q 905.23037,743.52704 904.41085,742.48704 Q 903.68239,741.44704 903.68239,739.84704 L 903.68239,727.04703 Q 903.68239,725.92703 904.31979,725.12703 Q 904.9572,724.32703 905.86778,723.84703 Q 906.86941,723.36703 908.05316,723.20703 Q 909.23692,722.96703 910.42067,722.96703 L 920.34598,722.96703 Q 921.71184,722.96703 923.07771,723.20703 Q 924.44358,723.44703 925.53627,724.00703 Q 926.62897,724.48703 927.26637,725.28703 Q 927.99483,726.00703 927.99483,726.96703 L 927.99483,733.92703 Z"
           style="font-style:normal;font-variant:normal;font-weight:normal;font-stretch:normal;font-size:medium;line-height:125%;font-family:Prototype;-inkscape-font-specification:Prototype;letter-spacing:0px;word-spacing:0px;fill:#ff6000;fill-opacity:1;stroke:none;stroke-width:1px;stroke-linecap:butt;stroke-linejoin:miter;stroke-opacity:1"
           id="path4398" />
        <path
           inkscape:connector-curvature="0"
           d="M 961.2594,723.76703 Q 961.2594,722.96703 962.17,722.96703 L 969.6367,722.96703 Q 970.5473,722.96703 970.5473,722.16703 L 970.5473,714.00704 Q 970.5473,713.20704 969.6367,713.20704 L 962.17,713.20704 Q 961.2594,713.20704 961.2594,712.40704 L 961.2594,702.40704 Q 961.2594,701.60704 960.3488,701.60704 L 951.0609,701.60704 Q 950.1503,701.60704 950.1503,702.40704 L 950.1503,712.40704 Q 950.1503,713.20704 949.2398,713.20704 L 944.4137,713.20704 Q 943.5031,713.20704 943.5031,714.00704 L 943.5031,722.16703 Q 943.5031,722.96703 944.4137,722.96703 L 949.2398,722.96703 Q 950.1503,722.96703 950.1503,723.76703 L 950.1503,748.72704 Q 950.1503,751.20704 952.4268,753.04704 Q 954.7032,754.88704 958.1634,754.88704 L 969.6367,754.88704 Q 970.5473,754.88704 970.5473,754.08704 L 970.5473,745.92704 Q 970.5473,745.20704 969.8188,745.12704 L 962.17,745.12704 Q 961.2594,745.12704 961.2594,744.32704 L 961.2594,723.76703 Z"
           style="font-style:normal;font-variant:normal;font-weight:normal;font-stretch:normal;font-size:medium;line-height:125%;font-family:Prototype;-inkscape-font-specification:Prototype;letter-spacing:0px;word-spacing:0px;fill:#ff6000;fill-opacity:1;stroke:none;stroke-width:1px;stroke-linecap:butt;stroke-linejoin:miter;stroke-opacity:1"
           id="path4400" />
      </g>
    </g>
    <g
       id="g4436"
       transform="translate(32.551166,70.704061)">
      <rect
         ry="27.086214"
         rx="27.086214"
         y="-454.30685"
         x="-564.0376"
         height="444.24011"
         width="444.24011"
         id="rect4434"
         style="color:#000000;display:inline;overflow:visible;visibility:visible;opacity:1;fill:#ffffff;fill-opacity:1;fill-rule:nonzero;stroke:none;stroke-width:4.51436901;stroke-linecap:round;stroke-linejoin:round;stroke-miterlimit:4;stroke-dasharray:none;stroke-dashoffset:0;stroke-opacity:1;marker:none;enable-background:accumulate" />
      <g
         transform="matrix(2.5876865,0,0,2.5876865,-1303.5046,-2852.2513)"
         inkscape:export-ydpi="177.41391"
         inkscape:export-xdpi="177.41391"
         id="g3489">
        <g
           inkscape:export-ydpi="64.777489"
           inkscape:export-xdpi="64.777489"
           id="g3491"
           transform="matrix(0.96592582,-0.25881904,0.25881904,0.96592582,-102.04982,555.17501)">
          <g
             id="g3493"
             style="fill:#767575;fill-opacity:1;stroke:none"
             transform="matrix(0.5969555,0.15995374,-0.15995374,0.5969555,187.18453,347.03367)">
            <path
               inkscape:connector-curvature="0"
               id="path3495"
               d="M 403.66024,282.97714 L 350.98876,230.30666 C 305.52073,201.13204 216.95499,216.43139 216.95499,216.43139 L 350.81024,334.95314 Z"
               style="fill:#767575;fill-opacity:1;fill-rule:evenodd;stroke:none;stroke-width:1px;stroke-linecap:butt;stroke-linejoin:miter;stroke-opacity:1"
               sodipodi:nodetypes="ccccc" />
            <path
               inkscape:connector-curvature="0"
               id="path3497"
               d="M 308.8794,376.0474 L 308.8794,308.0664 L 344.9544,339.9714 Z"
               style="fill:#767575;fill-opacity:1;fill-rule:evenodd;stroke:none;stroke-width:1px;stroke-linecap:butt;stroke-linejoin:miter;stroke-opacity:1" />
            <path
               inkscape:connector-curvature="0"
               id="path3499"
               d="M 403.66024,274.97714 L 354.42124,225.73914 L 403.66024,176.49414 Z"
               style="fill:#767575;fill-opacity:1;fill-rule:evenodd;stroke:none;stroke-width:1px;stroke-linecap:butt;stroke-linejoin:miter;stroke-opacity:1" />
            <path
               inkscape:connector-curvature="0"
               id="path3501"
               d="M 440.99424,208.82914 L 408.66024,176.49414 L 408.66024,208.82914 Z"
               style="fill:#767575;fill-opacity:1;fill-rule:evenodd;stroke:none;stroke-width:1px;stroke-linecap:butt;stroke-linejoin:miter;stroke-opacity:1" />
          </g>
          <g
             transform="matrix(0.5969555,0.15995374,-0.15995374,0.5969555,186.71819,346.56976)"
             style="stroke:none"
             id="g3503">
            <path
               sodipodi:nodetypes="ccccc"
               style="fill:#47adc5;fill-opacity:1;fill-rule:evenodd;stroke:none;stroke-width:1px;stroke-linecap:butt;stroke-linejoin:miter;stroke-opacity:1"
               d="M 403.66024,282.97714 L 350.98876,230.30666 C 305.52073,201.13204 216.95499,216.43139 216.95499,216.43139 L 350.81024,334.95314 Z"
               id="path3505"
               inkscape:connector-curvature="0" />
            <path
               style="fill:#47adc5;fill-opacity:1;fill-rule:evenodd;stroke:none;stroke-width:1px;stroke-linecap:butt;stroke-linejoin:miter;stroke-opacity:1"
               d="M 308.8794,376.0474 L 308.8794,308.0664 L 344.9544,339.9714 Z"
               id="path3507"
               inkscape:connector-curvature="0" />
            <path
               style="fill:#feb103;fill-opacity:1;fill-rule:evenodd;stroke:none;stroke-width:1px;stroke-linecap:butt;stroke-linejoin:miter;stroke-opacity:1"
               d="M 403.66024,274.97714 L 354.42124,225.73914 L 403.66024,176.49414 Z"
               id="path3509"
               inkscape:connector-curvature="0" />
            <path
               style="fill:#feb103;fill-opacity:1;fill-rule:evenodd;stroke:none;stroke-width:1px;stroke-linecap:butt;stroke-linejoin:miter;stroke-opacity:1"
               d="M 440.99424,208.82914 L 408.66024,176.49414 L 408.66024,208.82914 Z"
               id="path3511"
               inkscape:connector-curvature="0" />
          </g>
        </g>
      </g>
    </g>
  </g>
</svg>
